<?xml version="1.0" encoding="UTF-8"?><svg id="a" xmlns="http://www.w3.org/2000/svg" viewBox="0 0 575.92 116.07"><defs><style>.b{fill:#f95b1c;}</style></defs><path class="b" d="M154.05,16.19h29.39c4.92,0,9.66,.76,14.22,2.27,4.57,1.51,8.6,3.81,12.12,6.9,3.51,3.09,6.32,6.97,8.43,11.64,2.11,4.67,3.16,10.17,3.16,16.49s-1.21,11.92-3.64,16.59c-2.42,4.67-5.55,8.53-9.38,11.59-3.83,3.06-8.08,5.34-12.75,6.85-4.67,1.51-9.25,2.27-13.75,2.27h-27.81V16.19Zm23.18,62.58c4.14,0,8.06-.47,11.75-1.42,3.69-.95,6.9-2.42,9.64-4.43,2.74-2,4.9-4.6,6.48-7.79,1.58-3.19,2.37-7.07,2.37-11.64s-.7-8.36-2.11-11.59c-1.4-3.23-3.35-5.85-5.85-7.85-2.49-2-5.44-3.48-8.85-4.43-3.41-.95-7.15-1.42-11.22-1.42h-12.12v50.57h9.9Z"/><path class="b" d="M301.19,40.21v46.04c0,4.57-.56,8.69-1.69,12.38-1.12,3.69-2.86,6.81-5.21,9.38-2.35,2.56-5.32,4.55-8.9,5.95-3.58,1.4-7.83,2.11-12.75,2.11s-9.17-.6-13.38-1.79c-4.21-1.2-8.11-3.37-11.7-6.53l7.59-10.33c2.53,2.32,5.16,4.11,7.9,5.37,2.74,1.26,5.9,1.9,9.48,1.9,3.02,0,5.56-.42,7.64-1.26,2.07-.84,3.72-2,4.95-3.48,1.23-1.47,2.11-3.25,2.63-5.32,.53-2.07,.79-4.37,.79-6.9v-3.69h-.21c-1.83,2.46-4.25,4.3-7.27,5.53-3.02,1.23-6.11,1.84-9.27,1.84-3.79,0-7.23-.68-10.33-2.05-3.09-1.37-5.74-3.22-7.95-5.53-2.21-2.32-3.92-5.06-5.11-8.22-1.2-3.16-1.79-6.53-1.79-10.12s.56-7.2,1.69-10.43c1.12-3.23,2.77-6.04,4.95-8.43,2.18-2.39,4.79-4.27,7.85-5.64,3.06-1.37,6.55-2.05,10.48-2.05,3.58,0,6.92,.7,10.01,2.1,3.09,1.41,5.55,3.65,7.38,6.74h.21v-7.58h12.01Zm-26.97,10.11c-2.25,0-4.29,.37-6.11,1.11s-3.39,1.76-4.69,3.05c-1.3,1.3-2.32,2.88-3.05,4.74-.74,1.86-1.11,3.92-1.11,6.16,0,2.04,.37,3.94,1.11,5.69,.74,1.76,1.77,3.3,3.11,4.64,1.33,1.34,2.92,2.39,4.74,3.16,1.82,.77,3.79,1.16,5.9,1.16,2.32,0,4.41-.39,6.27-1.16,1.86-.77,3.44-1.81,4.74-3.11,1.3-1.3,2.3-2.86,3-4.69,.7-1.83,1.05-3.79,1.05-5.9,0-4.43-1.33-8.01-4-10.75-2.67-2.74-6.32-4.11-10.96-4.11Z"/><path class="b" d="M330.65,11.13h12.64V90.78h-12.64V11.13Z"/><path class="b" d="M397.84,90.78h-12.01v-8.11h-.21c-1.2,2.53-3.02,4.72-5.48,6.59-2.46,1.86-5.79,2.79-10.01,2.79-3.37,0-6.23-.54-8.59-1.63-2.35-1.09-4.27-2.56-5.74-4.43-1.47-1.86-2.53-3.98-3.16-6.37-.63-2.39-.95-4.88-.95-7.48v-31.92h12.64v25.6c0,1.4,.07,2.97,.21,4.69,.14,1.72,.51,3.34,1.11,4.85,.6,1.51,1.51,2.77,2.74,3.79,1.23,1.02,2.97,1.53,5.21,1.53,2.11,0,3.88-.35,5.32-1.05,1.44-.7,2.63-1.65,3.58-2.84,.95-1.2,1.63-2.56,2.06-4.11,.42-1.55,.63-3.16,.63-4.84v-27.6h12.64v50.57Z"/><path class="b" d="M404.14,50.96v-10.74h10.43v-14.65h12.64v14.65h13.91v10.74h-13.91v22.13c0,2.53,.47,4.53,1.42,6,.95,1.48,2.83,2.21,5.64,2.21,1.12,0,2.35-.12,3.69-.37,1.33-.25,2.39-.65,3.16-1.21v10.64c-1.33,.63-2.97,1.07-4.9,1.32-1.93,.25-3.63,.37-5.11,.37-3.37,0-6.13-.37-8.27-1.1-2.14-.74-3.83-1.86-5.06-3.37-1.23-1.51-2.07-3.39-2.53-5.64-.46-2.25-.69-4.84-.69-7.8v-23.18h-10.43Z"/><path class="b" d="M468.47,65.49c0-4,.72-7.64,2.16-10.9,1.44-3.27,3.39-6.06,5.85-8.38,2.46-2.32,5.37-4.11,8.74-5.37,3.37-1.26,6.95-1.9,10.75-1.9s7.38,.63,10.75,1.9c3.37,1.26,6.29,3.05,8.75,5.37,2.46,2.32,4.41,5.11,5.85,8.38,1.44,3.26,2.16,6.9,2.16,10.9s-.72,7.64-2.16,10.9c-1.44,3.27-3.39,6.06-5.85,8.38-2.46,2.32-5.37,4.11-8.75,5.37-3.37,1.26-6.95,1.9-10.75,1.9s-7.37-.63-10.75-1.9c-3.37-1.26-6.29-3.05-8.74-5.37-2.46-2.32-4.41-5.11-5.85-8.38-1.44-3.26-2.16-6.9-2.16-10.9Zm12.64,0c0,1.97,.33,3.87,1,5.69,.67,1.83,1.65,3.44,2.95,4.85,1.3,1.4,2.86,2.53,4.69,3.37,1.82,.84,3.9,1.26,6.21,1.26s4.39-.42,6.22-1.26c1.82-.85,3.39-1.97,4.69-3.37,1.3-1.4,2.28-3.02,2.95-4.85,.67-1.82,1-3.72,1-5.69s-.33-3.86-1-5.69c-.67-1.83-1.65-3.44-2.95-4.85-1.3-1.4-2.86-2.53-4.69-3.37-1.83-.84-3.9-1.26-6.22-1.26s-4.39,.42-6.21,1.26c-1.83,.85-3.39,1.97-4.69,3.37-1.3,1.41-2.28,3.02-2.95,4.85-.67,1.83-1,3.72-1,5.69Z"/><path class="b" d="M529.77,40.21h12.01v8.11h.21c1.19-2.53,3.02-4.72,5.48-6.59,2.46-1.86,5.79-2.79,10.01-2.79,3.37,0,6.23,.56,8.58,1.68,2.35,1.13,4.27,2.6,5.74,4.43,1.47,1.83,2.53,3.94,3.16,6.32,.63,2.39,.95,4.88,.95,7.48v31.92h-12.64v-25.6c0-1.4-.07-2.97-.21-4.69-.14-1.72-.51-3.34-1.11-4.85-.6-1.51-1.53-2.77-2.79-3.79-1.27-1.02-2.99-1.53-5.16-1.53s-3.88,.35-5.32,1.05c-1.44,.7-2.63,1.65-3.58,2.84s-1.63,2.56-2.05,4.11c-.42,1.55-.63,3.16-.63,4.84v27.6h-12.64V40.21Z"/><g><path class="b" d="M309.6,40.21h12.64v50.57h-12.64V40.21Z"/><rect class="b" x="309.6" y="25.57" width="12.64" height="8.34"/></g><g><path class="b" d="M227.68,40.21h12.64v50.57h-12.64V40.21Z"/><rect class="b" x="227.68" y="25.57" width="12.64" height="8.34"/></g><g><path class="b" d="M449.53,40.21h12.64v50.57h-12.64V40.21Z"/><rect class="b" x="449.53" y="25.57" width="12.64" height="8.34"/></g><path class="b" d="M53.48,0H15.36C6.89,0,0,6.89,0,15.37v25.75H53.04c6.81,0,12.56,5.33,12.8,11.89,.13,3.39-1.1,6.61-3.46,9.05-2.32,2.41-5.44,3.76-8.77,3.79v11.23h.03c6.4-.05,12.38-2.62,16.82-7.24,4.49-4.66,6.83-10.79,6.58-17.26-.48-12.72-11.02-22.68-24.01-22.68H11.21V15.37c0-2.29,1.86-4.15,4.15-4.15H53.48c23.31,0,42.27,18.96,42.27,42.27s-18.96,42.27-42.27,42.27h-12.36V53.61H15.36C6.89,53.61,0,60.5,0,68.98v37.99H53.48c29.49,0,53.48-23.99,53.48-53.48S82.98,0,53.48,0ZM11.21,95.76v-26.78c0-2.29,1.86-4.15,4.15-4.15h14.55v30.93H11.21Z"/></svg>