<?xml version="1.0" encoding="UTF-8"?><svg id="a" xmlns="http://www.w3.org/2000/svg" viewBox="0 0 647.42 647.42"><defs><style>.b{fill:none;}.c{fill:#161510;}</style></defs><path class="b" d="M647.42,4.53V0h-9.68c.24,1.5,.42,3.01,.57,4.53h9.11Z"/><path class="b" d="M638.31,69.28h9.11v-9.83h-10.74c.76,3.2,1.31,6.48,1.63,9.83Z"/><path class="b" d="M630.85,43.59c.15,.29,.3,.58,.45,.87h16.13V19.51h-9.28c-1,8.58-3.52,16.7-7.29,24.08Z"/><path class="c" d="M636.68,59.44h10.74v-14.98h-16.13c2.33,4.72,4.15,9.74,5.39,14.98Z"/><path class="c" d="M638.63,11.22c0,2.8-.18,5.57-.5,8.29h9.28V4.53h-9.11c.21,2.2,.32,4.43,.32,6.69Z"/><path class="b" d="M630.85,108.34c.15,.29,.3,.58,.45,.87h16.13v-24.96h-9.28c-1,8.58-3.52,16.7-7.29,24.08Z"/><path class="b" d="M638.31,134.02h9.11v-9.83h-10.74c.76,3.2,1.31,6.48,1.63,9.83Z"/><path class="c" d="M636.68,124.18h10.74v-14.98h-16.13c2.33,4.72,4.15,9.74,5.39,14.98Z"/><path class="c" d="M638.63,75.96c0,2.8-.18,5.57-.5,8.29h9.28v-14.98h-9.11c.21,2.2,.32,4.43,.32,6.69Z"/><path class="b" d="M630.85,173.08c.15,.29,.3,.58,.45,.87h16.13v-24.96h-9.28c-1,8.58-3.52,16.7-7.29,24.08Z"/><path class="b" d="M638.31,198.76h9.11v-9.83h-10.74c.76,3.2,1.31,6.48,1.63,9.83Z"/><path class="c" d="M636.68,188.93h10.74v-14.98h-16.13c2.33,4.72,4.15,9.74,5.39,14.98Z"/><path class="c" d="M638.63,140.71c0,2.8-.18,5.57-.5,8.29h9.28v-14.98h-9.11c.21,2.2,.32,4.43,.32,6.69Z"/><path class="b" d="M638.31,263.5h9.11v-9.83h-10.74c.76,3.2,1.31,6.48,1.63,9.83Z"/><path class="b" d="M630.85,237.82c.15,.29,.3,.58,.45,.87h16.13v-24.96h-9.28c-1,8.58-3.52,16.7-7.29,24.08Z"/><path class="c" d="M636.68,253.67h10.74v-14.98h-16.13c2.33,4.72,4.15,9.74,5.39,14.98Z"/><path class="c" d="M638.63,205.45c0,2.8-.18,5.57-.5,8.29h9.28v-14.98h-9.11c.21,2.2,.32,4.43,.32,6.69Z"/><path class="b" d="M630.85,302.56c.15,.29,.3,.58,.45,.87h16.13v-24.96h-9.28c-1,8.58-3.52,16.7-7.29,24.08Z"/><path class="b" d="M638.31,328.25h9.11v-9.83h-10.74c.76,3.2,1.31,6.48,1.63,9.83Z"/><path class="c" d="M636.68,318.41h10.74v-14.98h-16.13c2.33,4.72,4.15,9.74,5.39,14.98Z"/><path class="c" d="M638.63,270.19c0,2.8-.18,5.57-.5,8.29h9.28v-14.98h-9.11c.21,2.2,.32,4.43,.32,6.69Z"/><path class="b" d="M630.85,367.3c.15,.29,.3,.58,.45,.87h16.13v-24.96h-9.28c-1,8.58-3.52,16.7-7.29,24.08Z"/><path class="b" d="M638.31,392.99h9.11v-9.83h-10.74c.76,3.2,1.31,6.48,1.63,9.83Z"/><path class="c" d="M636.68,383.15h10.74v-14.98h-16.13c2.33,4.72,4.15,9.74,5.39,14.98Z"/><path class="c" d="M638.63,334.93c0,2.8-.18,5.57-.5,8.29h9.28v-14.98h-9.11c.21,2.2,.32,4.43,.32,6.69Z"/><path class="b" d="M638.31,457.73h9.11v-9.83h-10.74c.76,3.2,1.31,6.48,1.63,9.83Z"/><path class="b" d="M630.85,432.05c.15,.29,.3,.58,.45,.87h16.13v-24.96h-9.28c-1,8.58-3.52,16.7-7.29,24.08Z"/><path class="c" d="M636.68,447.9h10.74v-14.98h-16.13c2.33,4.72,4.15,9.74,5.39,14.98Z"/><path class="c" d="M638.63,399.68c0,2.8-.18,5.57-.5,8.29h9.28v-14.98h-9.11c.21,2.2,.32,4.43,.32,6.69Z"/><path class="b" d="M630.85,496.79c.15,.29,.3,.58,.45,.87h16.13v-24.96h-9.28c-1,8.58-3.52,16.7-7.29,24.08Z"/><path class="b" d="M638.31,522.47h9.11v-9.83h-10.74c.76,3.2,1.31,6.48,1.63,9.83Z"/><path class="c" d="M636.68,512.64h10.74v-14.98h-16.13c2.33,4.72,4.15,9.74,5.39,14.98Z"/><path class="c" d="M638.63,464.42c0,2.8-.18,5.57-.5,8.29h9.28v-14.98h-9.11c.21,2.2,.32,4.43,.32,6.69Z"/><path class="b" d="M638.31,587.21h9.11v-9.83h-10.74c.76,3.2,1.31,6.48,1.63,9.83Z"/><path class="b" d="M630.85,561.53c.15,.29,.3,.58,.45,.87h16.13v-24.96h-9.28c-1,8.58-3.52,16.7-7.29,24.08Z"/><path class="c" d="M636.68,577.38h10.74v-14.98h-16.13c2.33,4.72,4.15,9.74,5.39,14.98Z"/><path class="c" d="M638.63,529.16c0,2.8-.18,5.57-.5,8.29h9.28v-14.98h-9.11c.21,2.2,.32,4.43,.32,6.69Z"/><path class="b" d="M637.74,647.42h9.68v-5.3h-10.74c.41,1.74,.78,3.51,1.06,5.3Z"/><path class="b" d="M630.85,626.27c.15,.29,.3,.58,.45,.87h16.13v-24.96h-9.28c-1,8.58-3.52,16.7-7.29,24.08Z"/><path class="c" d="M636.68,642.12h10.74v-14.98h-16.13c2.33,4.72,4.15,9.74,5.39,14.98Z"/><path class="c" d="M638.63,593.9c0,2.8-.18,5.57-.5,8.29h9.28v-14.98h-9.11c.21,2.2,.32,4.43,.32,6.69Z"/><path class="b" d="M567.2,4.53c5.4,0,10.66,.62,15.73,1.77-.78-2.37-2.11-4.51-3.84-6.3h-33.83c.24,1.5,.42,3.01,.57,4.53h21.38Z"/><path class="b" d="M598.69,11.87c8.46,4.17,15.97,9.97,22.14,16.98,1.83-5.55,2.83-11.47,2.83-17.63,0-3.84-.39-7.59-1.12-11.22h-25.91c1.2,3.12,1.92,6.49,2.05,10.01,.02,.62,.02,1.24,.01,1.85Z"/><path class="c" d="M598.69,11.87c.01-.62,.01-1.23-.01-1.85-.13-3.53-.85-6.89-2.05-10.01h-17.54c1.73,1.79,3.06,3.93,3.84,6.3,5.52,1.25,10.8,3.12,15.76,5.57Z"/><path class="c" d="M623.66,11.22c0,6.16-1,12.08-2.83,17.63,3.92,4.46,7.29,9.41,10.02,14.74,3.77-7.38,6.3-15.5,7.29-24.08,.32-2.72,.5-5.48,.5-8.29,0-2.26-.12-4.48-.32-6.69-.14-1.53-.33-3.04-.57-4.53h-15.21c.73,3.63,1.12,7.38,1.12,11.22Z"/><path class="b" d="M566.62,44.47c17.34,0,31.42,13.3,32.06,30.29,.02,.62,.02,1.24,.01,1.85,8.46,4.17,15.97,9.97,22.14,16.98,1.83-5.55,2.83-11.47,2.83-17.63,0-31.13-25.32-56.45-56.45-56.45h-21.55c-1,8.58-3.52,16.7-7.29,24.08,.15,.29,.3,.58,.45,.87h27.81Z"/><path class="b" d="M582.93,71.04c-2.2-6.68-8.76-11.6-16.31-11.6h-22.42c.76,3.2,1.31,6.48,1.63,9.83h21.38c5.4,0,10.66,.62,15.73,1.77Z"/><path class="c" d="M623.66,75.96c0,6.16-1,12.08-2.83,17.63,3.92,4.46,7.29,9.41,10.02,14.74,3.77-7.38,6.3-15.5,7.29-24.08,.32-2.72,.5-5.48,.5-8.29,0-2.26-.12-4.48-.32-6.69-.31-3.35-.87-6.63-1.63-9.83-1.25-5.24-3.06-10.25-5.39-14.98-.14-.29-.3-.58-.45-.87-2.73-5.34-6.1-10.28-10.02-14.74-6.17-7.01-13.68-12.81-22.14-16.98-4.96-2.45-10.24-4.32-15.76-5.57-5.06-1.14-10.32-1.77-15.73-1.77h-21.38c.21,2.2,.32,4.43,.32,6.69,0,2.8-.18,5.57-.5,8.29h21.55c31.13,0,56.45,25.32,56.45,56.45Z"/><path class="c" d="M582.93,71.04c5.52,1.25,10.8,3.12,15.76,5.57,.01-.62,.01-1.23-.01-1.85-.64-16.99-14.72-30.29-32.06-30.29h-27.81c2.33,4.72,4.15,9.74,5.39,14.98h22.42c7.56,0,14.11,4.92,16.31,11.6Z"/><path class="b" d="M566.62,109.21c17.34,0,31.42,13.3,32.06,30.29,.02,.62,.02,1.24,.01,1.85,8.46,4.17,15.97,9.97,22.14,16.98,1.83-5.55,2.83-11.47,2.83-17.63,0-31.13-25.32-56.45-56.45-56.45h-21.55c-1,8.58-3.52,16.7-7.29,24.08,.15,.29,.3,.58,.45,.87h27.81Z"/><path class="b" d="M566.62,124.18h-22.42c.76,3.2,1.31,6.48,1.63,9.83h21.38c5.4,0,10.66,.62,15.73,1.77-2.2-6.68-8.76-11.6-16.31-11.6Z"/><path class="c" d="M598.68,139.5c-.64-16.99-14.72-30.29-32.06-30.29h-27.81c2.33,4.72,4.15,9.74,5.39,14.98h22.42c7.56,0,14.11,4.92,16.31,11.6,5.52,1.25,10.8,3.12,15.76,5.57,.01-.62,.01-1.23-.01-1.85Z"/><path class="c" d="M620.82,93.59c-6.17-7.01-13.68-12.81-22.14-16.98-4.96-2.45-10.24-4.32-15.76-5.57-5.06-1.14-10.32-1.77-15.73-1.77h-21.38c.21,2.2,.32,4.43,.32,6.69,0,2.8-.18,5.57-.5,8.29h21.55c31.13,0,56.45,25.32,56.45,56.45,0,6.16-1,12.08-2.83,17.63,3.92,4.46,7.29,9.41,10.02,14.74,3.77-7.38,6.3-15.5,7.29-24.08,.32-2.72,.5-5.48,.5-8.29,0-2.26-.12-4.48-.32-6.69-.31-3.35-.87-6.63-1.63-9.83-1.25-5.24-3.06-10.25-5.39-14.98-.14-.29-.3-.58-.45-.87-2.73-5.34-6.1-10.28-10.02-14.74Z"/><path class="b" d="M566.62,188.93h-22.42c.76,3.2,1.31,6.48,1.63,9.83h21.38c5.4,0,10.66,.62,15.73,1.77-2.2-6.68-8.76-11.6-16.31-11.6Z"/><path class="b" d="M538.36,173.08c.15,.29,.3,.58,.45,.87h27.81c17.34,0,31.42,13.3,32.06,30.29,.02,.62,.02,1.24,.01,1.85,8.46,4.17,15.97,9.97,22.14,16.98,1.83-5.55,2.83-11.47,2.83-17.63,0-31.13-25.32-56.45-56.45-56.45h-21.55c-1,8.58-3.52,16.7-7.29,24.08Z"/><path class="c" d="M598.68,204.24c-.64-16.99-14.72-30.29-32.06-30.29h-27.81c2.33,4.72,4.15,9.74,5.39,14.98h22.42c7.56,0,14.11,4.92,16.31,11.6,5.52,1.25,10.8,3.12,15.76,5.57,.01-.62,.01-1.23-.01-1.85Z"/><path class="c" d="M620.82,158.34c-6.17-7.01-13.68-12.81-22.14-16.98-4.96-2.45-10.24-4.32-15.76-5.57-5.06-1.14-10.32-1.77-15.73-1.77h-21.38c.21,2.2,.32,4.43,.32,6.69,0,2.8-.18,5.57-.5,8.29h21.55c31.13,0,56.45,25.32,56.45,56.45,0,6.16-1,12.08-2.83,17.63,3.92,4.46,7.29,9.41,10.02,14.74,3.77-7.38,6.3-15.5,7.29-24.08,.32-2.72,.5-5.48,.5-8.29,0-2.26-.12-4.48-.32-6.69-.31-3.35-.87-6.63-1.63-9.83-1.25-5.24-3.06-10.25-5.39-14.98-.14-.29-.3-.58-.45-.87-2.73-5.34-6.1-10.28-10.02-14.74Z"/><path class="b" d="M566.62,253.67h-22.42c.76,3.2,1.31,6.48,1.63,9.83h21.38c5.4,0,10.66,.62,15.73,1.77-2.2-6.68-8.76-11.6-16.31-11.6Z"/><path class="b" d="M538.36,237.82c.15,.29,.3,.58,.45,.87h27.81c17.34,0,31.42,13.3,32.06,30.29,.02,.62,.02,1.24,.01,1.85,8.46,4.17,15.97,9.97,22.14,16.98,1.83-5.55,2.83-11.47,2.83-17.63,0-31.13-25.32-56.45-56.45-56.45h-21.55c-1,8.58-3.52,16.7-7.29,24.08Z"/><path class="c" d="M598.68,268.98c-.64-16.99-14.72-30.29-32.06-30.29h-27.81c2.33,4.72,4.15,9.74,5.39,14.98h22.42c7.56,0,14.11,4.92,16.31,11.6,5.52,1.25,10.8,3.12,15.76,5.57,.01-.62,.01-1.23-.01-1.85Z"/><path class="c" d="M620.82,223.08c-6.17-7.01-13.68-12.81-22.14-16.98-4.96-2.45-10.24-4.32-15.76-5.57-5.06-1.14-10.32-1.77-15.73-1.77h-21.38c.21,2.2,.32,4.43,.32,6.69,0,2.8-.18,5.57-.5,8.29h21.55c31.13,0,56.45,25.32,56.45,56.45,0,6.16-1,12.08-2.83,17.63,3.92,4.46,7.29,9.41,10.02,14.74,3.77-7.38,6.3-15.5,7.29-24.08,.32-2.72,.5-5.48,.5-8.29,0-2.26-.12-4.48-.32-6.69-.31-3.35-.87-6.63-1.63-9.83-1.25-5.24-3.06-10.25-5.39-14.98-.14-.29-.3-.58-.45-.87-2.73-5.34-6.1-10.28-10.02-14.74Z"/><path class="b" d="M566.62,318.41h-22.42c.76,3.2,1.31,6.48,1.63,9.83h21.38c5.4,0,10.66,.62,15.73,1.77-2.2-6.68-8.76-11.6-16.31-11.6Z"/><path class="b" d="M538.36,302.56c.15,.29,.3,.58,.45,.87h27.81c17.34,0,31.42,13.3,32.06,30.29,.02,.62,.02,1.24,.01,1.85,8.46,4.17,15.97,9.97,22.14,16.98,1.83-5.55,2.83-11.47,2.83-17.63,0-31.13-25.32-56.45-56.45-56.45h-21.55c-1,8.58-3.52,16.7-7.29,24.08Z"/><path class="c" d="M598.68,333.73c-.64-16.99-14.72-30.29-32.06-30.29h-27.81c2.33,4.72,4.15,9.74,5.39,14.98h22.42c7.56,0,14.11,4.92,16.31,11.6,5.52,1.25,10.8,3.12,15.76,5.57,.01-.62,.01-1.23-.01-1.85Z"/><path class="c" d="M620.82,287.82c-6.17-7.01-13.68-12.81-22.14-16.98-4.96-2.45-10.24-4.32-15.76-5.57-5.06-1.14-10.32-1.77-15.73-1.77h-21.38c.21,2.2,.32,4.43,.32,6.69,0,2.8-.18,5.57-.5,8.29h21.55c31.13,0,56.45,25.32,56.45,56.45,0,6.16-1,12.08-2.83,17.63,3.92,4.46,7.29,9.41,10.02,14.74,3.77-7.38,6.3-15.5,7.29-24.08,.32-2.72,.5-5.48,.5-8.29,0-2.26-.12-4.48-.32-6.69-.31-3.35-.87-6.63-1.63-9.83-1.25-5.24-3.06-10.25-5.39-14.98-.14-.29-.3-.58-.45-.87-2.73-5.34-6.1-10.28-10.02-14.74Z"/><path class="b" d="M566.62,383.15h-22.42c.76,3.2,1.31,6.48,1.63,9.83h21.38c5.4,0,10.66,.62,15.73,1.77-2.2-6.68-8.76-11.6-16.31-11.6Z"/><path class="b" d="M538.36,367.3c.15,.29,.3,.58,.45,.87h27.81c17.34,0,31.42,13.3,32.06,30.29,.02,.62,.02,1.24,.01,1.85,8.46,4.17,15.97,9.97,22.14,16.98,1.83-5.55,2.83-11.47,2.83-17.63,0-31.13-25.32-56.45-56.45-56.45h-21.55c-1,8.58-3.52,16.7-7.29,24.08Z"/><path class="c" d="M598.68,398.47c-.64-16.99-14.72-30.29-32.06-30.29h-27.81c2.33,4.72,4.15,9.74,5.39,14.98h22.42c7.56,0,14.11,4.92,16.31,11.6,5.52,1.25,10.8,3.12,15.76,5.57,.01-.62,.01-1.23-.01-1.85Z"/><path class="c" d="M620.82,352.56c-6.17-7.01-13.68-12.81-22.14-16.98-4.96-2.45-10.24-4.32-15.76-5.57-5.06-1.14-10.32-1.77-15.73-1.77h-21.38c.21,2.2,.32,4.43,.32,6.69,0,2.8-.18,5.57-.5,8.29h21.55c31.13,0,56.45,25.32,56.45,56.45,0,6.16-1,12.08-2.83,17.63,3.92,4.46,7.29,9.41,10.02,14.74,3.77-7.38,6.3-15.5,7.29-24.08,.32-2.72,.5-5.48,.5-8.29,0-2.26-.12-4.48-.32-6.69-.31-3.35-.87-6.63-1.63-9.83-1.25-5.24-3.06-10.25-5.39-14.98-.14-.29-.3-.58-.45-.87-2.73-5.34-6.1-10.28-10.02-14.74Z"/><path class="b" d="M566.62,447.9h-22.42c.76,3.2,1.31,6.48,1.63,9.83h21.38c5.4,0,10.66,.62,15.73,1.77-2.2-6.68-8.76-11.6-16.31-11.6Z"/><path class="b" d="M538.36,432.05c.15,.29,.3,.58,.45,.87h27.81c17.34,0,31.42,13.3,32.06,30.29,.02,.62,.02,1.24,.01,1.85,8.46,4.17,15.97,9.97,22.14,16.98,1.83-5.55,2.83-11.47,2.83-17.63,0-31.13-25.32-56.45-56.45-56.45h-21.55c-1,8.58-3.52,16.7-7.29,24.08Z"/><path class="c" d="M598.68,463.21c-.64-16.99-14.72-30.29-32.06-30.29h-27.81c2.33,4.72,4.15,9.74,5.39,14.98h22.42c7.56,0,14.11,4.92,16.31,11.6,5.52,1.25,10.8,3.12,15.76,5.57,.01-.62,.01-1.23-.01-1.85Z"/><path class="c" d="M620.82,417.3c-6.17-7.01-13.68-12.81-22.14-16.98-4.96-2.45-10.24-4.32-15.76-5.57-5.06-1.14-10.32-1.77-15.73-1.77h-21.38c.21,2.2,.32,4.43,.32,6.69,0,2.8-.18,5.57-.5,8.29h21.55c31.13,0,56.45,25.32,56.45,56.45,0,6.16-1,12.08-2.83,17.63,3.92,4.46,7.29,9.41,10.02,14.74,3.77-7.38,6.3-15.5,7.29-24.08,.32-2.72,.5-5.48,.5-8.29,0-2.26-.12-4.48-.32-6.69-.31-3.35-.87-6.63-1.63-9.83-1.25-5.24-3.06-10.25-5.39-14.98-.14-.29-.3-.58-.45-.87-2.73-5.34-6.1-10.28-10.02-14.74Z"/><path class="b" d="M566.62,512.64h-22.42c.76,3.2,1.31,6.48,1.63,9.83h21.38c5.4,0,10.66,.62,15.73,1.77-2.2-6.68-8.76-11.6-16.31-11.6Z"/><path class="b" d="M538.36,496.79c.15,.29,.3,.58,.45,.87h27.81c17.34,0,31.42,13.3,32.06,30.29,.02,.62,.02,1.24,.01,1.85,8.46,4.17,15.97,9.97,22.14,16.98,1.83-5.55,2.83-11.47,2.83-17.63,0-31.13-25.32-56.45-56.45-56.45h-21.55c-1,8.58-3.52,16.7-7.29,24.08Z"/><path class="c" d="M598.68,527.95c-.64-16.99-14.72-30.29-32.06-30.29h-27.81c2.33,4.72,4.15,9.74,5.39,14.98h22.42c7.56,0,14.11,4.92,16.31,11.6,5.52,1.25,10.8,3.12,15.76,5.57,.01-.62,.01-1.23-.01-1.85Z"/><path class="c" d="M620.82,482.05c-6.17-7.01-13.68-12.81-22.14-16.98-4.96-2.45-10.24-4.32-15.76-5.57-5.06-1.14-10.32-1.77-15.73-1.77h-21.38c.21,2.2,.32,4.43,.32,6.69,0,2.8-.18,5.57-.5,8.29h21.55c31.13,0,56.45,25.32,56.45,56.45,0,6.16-1,12.08-2.83,17.63,3.92,4.46,7.29,9.41,10.02,14.74,3.77-7.38,6.3-15.5,7.29-24.08,.32-2.72,.5-5.48,.5-8.29,0-2.26-.12-4.48-.32-6.69-.31-3.35-.87-6.63-1.63-9.83-1.25-5.24-3.06-10.25-5.39-14.98-.14-.29-.3-.58-.45-.87-2.73-5.34-6.1-10.28-10.02-14.74Z"/><path class="b" d="M623.66,593.9c0-31.13-25.32-56.45-56.45-56.45h-21.55c-1,8.58-3.52,16.7-7.29,24.08,.15,.29,.3,.58,.45,.87h27.81c17.34,0,31.42,13.3,32.06,30.29,.02,.62,.02,1.24,.01,1.85,8.46,4.17,15.97,9.97,22.14,16.98,1.83-5.55,2.83-11.47,2.83-17.63Z"/><path class="b" d="M566.62,577.38h-22.42c.76,3.2,1.31,6.48,1.63,9.83h21.38c5.4,0,10.66,.62,15.73,1.77-2.2-6.68-8.76-11.6-16.31-11.6Z"/><path class="c" d="M598.68,592.69c-.64-16.99-14.72-30.29-32.06-30.29h-27.81c2.33,4.72,4.15,9.74,5.39,14.98h22.42c7.56,0,14.11,4.92,16.31,11.6,5.52,1.25,10.8,3.12,15.76,5.57,.01-.62,.01-1.23-.01-1.85Z"/><path class="c" d="M620.82,546.79c-6.17-7.01-13.68-12.81-22.14-16.98-4.96-2.45-10.24-4.32-15.76-5.57-5.06-1.14-10.32-1.77-15.73-1.77h-21.38c.21,2.2,.32,4.43,.32,6.69,0,2.8-.18,5.57-.5,8.29h21.55c31.13,0,56.45,25.32,56.45,56.45,0,6.16-1,12.08-2.83,17.63,3.92,4.46,7.29,9.41,10.02,14.74,3.77-7.38,6.3-15.5,7.29-24.08,.32-2.72,.5-5.48,.5-8.29,0-2.26-.12-4.48-.32-6.69-.31-3.35-.87-6.63-1.63-9.83-1.25-5.24-3.06-10.25-5.39-14.98-.14-.29-.3-.58-.45-.87-2.73-5.34-6.1-10.28-10.02-14.74Z"/><path class="b" d="M567.2,602.19h-21.55c-1,8.58-3.52,16.7-7.29,24.08,.15,.29,.3,.58,.45,.87h27.81c13.74,0,25.43,8.36,30.01,20.28h25.91c-5.22-25.77-28.04-45.23-55.33-45.23Z"/><path class="b" d="M566.62,642.12h-22.42c.42,1.74,.78,3.51,1.06,5.3h33.83c-3.15-3.24-7.6-5.3-12.47-5.3Z"/><path class="c" d="M631.29,627.15c-.14-.29-.3-.58-.45-.87-2.73-5.34-6.1-10.28-10.02-14.74-6.17-7.01-13.68-12.81-22.14-16.98-4.96-2.45-10.24-4.32-15.76-5.57-5.06-1.14-10.32-1.77-15.73-1.77h-21.38c.21,2.2,.32,4.43,.32,6.69,0,2.8-.18,5.57-.5,8.29h21.55c27.29,0,50.11,19.46,55.33,45.23h15.21c-.28-1.79-.65-3.56-1.06-5.3-1.25-5.24-3.06-10.25-5.39-14.98Z"/><path class="c" d="M566.62,627.15h-27.81c2.33,4.72,4.15,9.74,5.39,14.98h22.42c4.87,0,9.33,2.06,12.47,5.3h17.54c-4.58-11.92-16.27-20.28-30.01-20.28Z"/><path class="b" d="M474.71,4.53c5.4,0,10.66,.62,15.73,1.77-.78-2.37-2.11-4.51-3.84-6.3h-33.83c.24,1.5,.42,3.01,.57,4.53h21.38Z"/><path class="b" d="M506.2,11.87c8.46,4.17,15.97,9.97,22.14,16.98,1.83-5.55,2.83-11.47,2.83-17.63,0-3.84-.39-7.59-1.12-11.22h-25.91c1.2,3.12,1.92,6.49,2.05,10.01,.02,.62,.02,1.24,.01,1.85Z"/><path class="c" d="M506.2,11.87c.01-.62,.01-1.23-.01-1.85-.13-3.53-.85-6.89-2.05-10.01h-17.54c1.73,1.79,3.06,3.93,3.84,6.3,5.52,1.25,10.8,3.12,15.76,5.57Z"/><path class="c" d="M531.17,11.22c0,6.16-1,12.08-2.83,17.63,3.92,4.46,7.29,9.41,10.02,14.74,3.77-7.38,6.3-15.5,7.29-24.08,.32-2.72,.5-5.48,.5-8.29,0-2.26-.12-4.48-.32-6.69-.14-1.53-.33-3.04-.57-4.53h-15.21c.73,3.63,1.12,7.38,1.12,11.22Z"/><path class="b" d="M474.13,44.47c17.34,0,31.42,13.3,32.06,30.29,.02,.62,.02,1.24,.01,1.85,8.46,4.17,15.97,9.97,22.14,16.98,1.83-5.55,2.83-11.47,2.83-17.63,0-31.13-25.32-56.45-56.45-56.45h-21.55c-1,8.58-3.52,16.7-7.29,24.08,.15,.29,.3,.58,.45,.87h27.81Z"/><path class="b" d="M490.44,71.04c-2.2-6.68-8.76-11.6-16.31-11.6h-22.42c.76,3.2,1.31,6.48,1.63,9.83h21.38c5.4,0,10.66,.62,15.73,1.77Z"/><path class="c" d="M490.44,71.04c5.52,1.25,10.8,3.12,15.76,5.57,.01-.62,.01-1.23-.01-1.85-.64-16.99-14.72-30.29-32.06-30.29h-27.81c2.33,4.72,4.15,9.74,5.39,14.98h22.42c7.56,0,14.11,4.92,16.31,11.6Z"/><path class="c" d="M531.17,75.96c0,6.16-1,12.08-2.83,17.63,3.92,4.46,7.29,9.41,10.02,14.74,3.77-7.38,6.3-15.5,7.29-24.08,.32-2.72,.5-5.48,.5-8.29,0-2.26-.12-4.48-.32-6.69-.31-3.35-.87-6.63-1.63-9.83-1.25-5.24-3.06-10.25-5.39-14.98-.14-.29-.3-.58-.45-.87-2.72-5.34-6.1-10.28-10.02-14.74-6.17-7.01-13.68-12.81-22.14-16.98-4.96-2.45-10.24-4.32-15.76-5.57-5.06-1.14-10.32-1.77-15.73-1.77h-21.38c.21,2.2,.32,4.43,.32,6.69,0,2.8-.18,5.57-.5,8.29h21.55c31.13,0,56.45,25.32,56.45,56.45Z"/><path class="b" d="M474.13,109.21c17.34,0,31.42,13.3,32.06,30.29,.02,.62,.02,1.24,.01,1.85,8.46,4.17,15.97,9.97,22.14,16.98,1.83-5.55,2.83-11.47,2.83-17.63,0-31.13-25.32-56.45-56.45-56.45h-21.55c-1,8.58-3.52,16.7-7.29,24.08,.15,.29,.3,.58,.45,.87h27.81Z"/><path class="b" d="M490.44,135.78c-2.2-6.68-8.76-11.6-16.31-11.6h-22.42c.76,3.2,1.31,6.48,1.63,9.83h21.38c5.4,0,10.66,.62,15.73,1.77Z"/><path class="c" d="M531.17,140.71c0,6.16-1,12.08-2.83,17.63,3.92,4.46,7.29,9.41,10.02,14.74,3.77-7.38,6.3-15.5,7.29-24.08,.32-2.72,.5-5.48,.5-8.29,0-2.26-.12-4.48-.32-6.69-.31-3.35-.87-6.63-1.63-9.83-1.25-5.24-3.06-10.25-5.39-14.98-.14-.29-.3-.58-.45-.87-2.72-5.34-6.1-10.28-10.02-14.74-6.17-7.01-13.68-12.81-22.14-16.98-4.96-2.45-10.24-4.32-15.76-5.57-5.06-1.14-10.32-1.77-15.73-1.77h-21.38c.21,2.2,.32,4.43,.32,6.69,0,2.8-.18,5.57-.5,8.29h21.55c31.13,0,56.45,25.32,56.45,56.45Z"/><path class="c" d="M490.44,135.78c5.52,1.25,10.8,3.12,15.76,5.57,.01-.62,.01-1.23-.01-1.85-.64-16.99-14.72-30.29-32.06-30.29h-27.81c2.33,4.72,4.15,9.74,5.39,14.98h22.42c7.56,0,14.11,4.92,16.31,11.6Z"/><path class="b" d="M474.13,173.95c17.34,0,31.42,13.3,32.06,30.29,.02,.62,.02,1.24,.01,1.85,8.46,4.17,15.97,9.97,22.14,16.98,1.83-5.55,2.83-11.47,2.83-17.63,0-31.13-25.32-56.45-56.45-56.45h-21.55c-1,8.58-3.52,16.7-7.29,24.08,.15,.29,.3,.58,.45,.87h27.81Z"/><path class="b" d="M474.13,188.93h-22.42c.76,3.2,1.31,6.48,1.63,9.83h21.38c5.4,0,10.66,.62,15.73,1.77-2.2-6.68-8.76-11.6-16.31-11.6Z"/><path class="c" d="M544.19,188.93c-1.25-5.24-3.06-10.25-5.39-14.98-.14-.29-.3-.58-.45-.87-2.72-5.34-6.1-10.28-10.02-14.74-6.17-7.01-13.68-12.81-22.14-16.98-4.96-2.45-10.24-4.32-15.76-5.57-5.06-1.14-10.32-1.77-15.73-1.77h-21.38c.21,2.2,.32,4.43,.32,6.69,0,2.8-.18,5.57-.5,8.29h21.55c31.13,0,56.45,25.32,56.45,56.45,0,6.16-1,12.08-2.83,17.63,3.92,4.46,7.29,9.41,10.02,14.74,3.77-7.38,6.3-15.5,7.29-24.08,.32-2.72,.5-5.48,.5-8.29,0-2.26-.12-4.48-.32-6.69-.31-3.35-.87-6.63-1.63-9.83Z"/><path class="c" d="M506.19,204.24c-.64-16.99-14.72-30.29-32.06-30.29h-27.81c2.33,4.72,4.15,9.74,5.39,14.98h22.42c7.56,0,14.11,4.92,16.31,11.6,5.52,1.25,10.8,3.12,15.76,5.57,.01-.62,.01-1.23-.01-1.85Z"/><path class="b" d="M474.13,253.67h-22.42c.76,3.2,1.31,6.48,1.63,9.83h21.38c5.4,0,10.66,.62,15.73,1.77-2.2-6.68-8.76-11.6-16.31-11.6Z"/><path class="b" d="M445.87,237.82c.15,.29,.3,.58,.45,.87h27.81c17.34,0,31.42,13.3,32.06,30.29,.02,.62,.02,1.24,.01,1.85,8.46,4.17,15.97,9.97,22.14,16.98,1.83-5.55,2.83-11.47,2.83-17.63,0-31.13-25.32-56.45-56.45-56.45h-21.55c-1,8.58-3.52,16.7-7.29,24.08Z"/><path class="c" d="M544.19,253.67c-1.25-5.24-3.06-10.25-5.39-14.98-.14-.29-.3-.58-.45-.87-2.72-5.34-6.1-10.28-10.02-14.74-6.17-7.01-13.68-12.81-22.14-16.98-4.96-2.45-10.24-4.32-15.76-5.57-5.06-1.14-10.32-1.77-15.73-1.77h-21.38c.21,2.2,.32,4.43,.32,6.69,0,2.8-.18,5.57-.5,8.29h21.55c31.13,0,56.45,25.32,56.45,56.45,0,6.16-1,12.08-2.83,17.63,3.92,4.46,7.29,9.41,10.02,14.74,3.77-7.38,6.3-15.5,7.29-24.08,.32-2.72,.5-5.48,.5-8.29,0-2.26-.12-4.48-.32-6.69-.31-3.35-.87-6.63-1.63-9.83Z"/><path class="c" d="M506.19,268.98c-.64-16.99-14.72-30.29-32.06-30.29h-27.81c2.33,4.72,4.15,9.74,5.39,14.98h22.42c7.56,0,14.11,4.92,16.31,11.6,5.52,1.25,10.8,3.12,15.76,5.57,.01-.62,.01-1.23-.01-1.85Z"/><path class="b" d="M474.13,318.41h-22.42c.76,3.2,1.31,6.48,1.63,9.83h21.38c5.4,0,10.66,.62,15.73,1.77-2.2-6.68-8.76-11.6-16.31-11.6Z"/><path class="b" d="M445.87,302.56c.15,.29,.3,.58,.45,.87h27.81c17.34,0,31.42,13.3,32.06,30.29,.02,.62,.02,1.24,.01,1.85,8.46,4.17,15.97,9.97,22.14,16.98,1.83-5.55,2.83-11.47,2.83-17.63,0-31.13-25.32-56.45-56.45-56.45h-21.55c-1,8.58-3.52,16.7-7.29,24.08Z"/><path class="c" d="M544.19,318.41c-1.25-5.24-3.06-10.25-5.39-14.98-.14-.29-.3-.58-.45-.87-2.72-5.34-6.1-10.28-10.02-14.74-6.17-7.01-13.68-12.81-22.14-16.98-4.96-2.45-10.24-4.32-15.76-5.57-5.06-1.14-10.32-1.77-15.73-1.77h-21.38c.21,2.2,.32,4.43,.32,6.69,0,2.8-.18,5.57-.5,8.29h21.55c31.13,0,56.45,25.32,56.45,56.45,0,6.16-1,12.08-2.83,17.63,3.92,4.46,7.29,9.41,10.02,14.74,3.77-7.38,6.3-15.5,7.29-24.08,.32-2.72,.5-5.48,.5-8.29,0-2.26-.12-4.48-.32-6.69-.31-3.35-.87-6.63-1.63-9.83Z"/><path class="c" d="M506.19,333.73c-.64-16.99-14.72-30.29-32.06-30.29h-27.81c2.33,4.72,4.15,9.74,5.39,14.98h22.42c7.56,0,14.11,4.92,16.31,11.6,5.52,1.25,10.8,3.12,15.76,5.57,.01-.62,.01-1.23-.01-1.85Z"/><path class="b" d="M474.13,383.15h-22.42c.76,3.2,1.31,6.48,1.63,9.83h21.38c5.4,0,10.66,.62,15.73,1.77-2.2-6.68-8.76-11.6-16.31-11.6Z"/><path class="b" d="M445.87,367.3c.15,.29,.3,.58,.45,.87h27.81c17.34,0,31.42,13.3,32.06,30.29,.02,.62,.02,1.24,.01,1.85,8.46,4.17,15.97,9.97,22.14,16.98,1.83-5.55,2.83-11.47,2.83-17.63,0-31.13-25.32-56.45-56.45-56.45h-21.55c-1,8.58-3.52,16.7-7.29,24.08Z"/><path class="c" d="M544.19,383.15c-1.25-5.24-3.06-10.25-5.39-14.98-.14-.29-.3-.58-.45-.87-2.72-5.34-6.1-10.28-10.02-14.74-6.17-7.01-13.68-12.81-22.14-16.98-4.96-2.45-10.24-4.32-15.76-5.57-5.06-1.14-10.32-1.77-15.73-1.77h-21.38c.21,2.2,.32,4.43,.32,6.69,0,2.8-.18,5.57-.5,8.29h21.55c31.13,0,56.45,25.32,56.45,56.45,0,6.16-1,12.08-2.83,17.63,3.92,4.46,7.29,9.41,10.02,14.74,3.77-7.38,6.3-15.5,7.29-24.08,.32-2.72,.5-5.48,.5-8.29,0-2.26-.12-4.48-.32-6.69-.31-3.35-.87-6.63-1.63-9.83Z"/><path class="c" d="M506.19,398.47c-.64-16.99-14.72-30.29-32.06-30.29h-27.81c2.33,4.72,4.15,9.74,5.39,14.98h22.42c7.56,0,14.11,4.92,16.31,11.6,5.52,1.25,10.8,3.12,15.76,5.57,.01-.62,.01-1.23-.01-1.85Z"/><path class="b" d="M474.13,447.9h-22.42c.76,3.2,1.31,6.48,1.63,9.83h21.38c5.4,0,10.66,.62,15.73,1.77-2.2-6.68-8.76-11.6-16.31-11.6Z"/><path class="b" d="M445.87,432.05c.15,.29,.3,.58,.45,.87h27.81c17.34,0,31.42,13.3,32.06,30.29,.02,.62,.02,1.24,.01,1.85,8.46,4.17,15.97,9.97,22.14,16.98,1.83-5.55,2.83-11.47,2.83-17.63,0-31.13-25.32-56.45-56.45-56.45h-21.55c-1,8.58-3.52,16.7-7.29,24.08Z"/><path class="c" d="M544.19,447.9c-1.25-5.24-3.06-10.25-5.39-14.98-.14-.29-.3-.58-.45-.87-2.72-5.34-6.1-10.28-10.02-14.74-6.17-7.01-13.68-12.81-22.14-16.98-4.96-2.45-10.24-4.32-15.76-5.57-5.06-1.14-10.32-1.77-15.73-1.77h-21.38c.21,2.2,.32,4.43,.32,6.69,0,2.8-.18,5.57-.5,8.29h21.55c31.13,0,56.45,25.32,56.45,56.45,0,6.16-1,12.08-2.83,17.63,3.92,4.46,7.29,9.41,10.02,14.74,3.77-7.38,6.3-15.5,7.29-24.08,.32-2.72,.5-5.48,.5-8.29,0-2.26-.12-4.48-.32-6.69-.31-3.35-.87-6.63-1.63-9.83Z"/><path class="c" d="M506.19,463.21c-.64-16.99-14.72-30.29-32.06-30.29h-27.81c2.33,4.72,4.15,9.74,5.39,14.98h22.42c7.56,0,14.11,4.92,16.31,11.6,5.52,1.25,10.8,3.12,15.76,5.57,.01-.62,.01-1.23-.01-1.85Z"/><path class="b" d="M531.17,529.16c0-31.13-25.32-56.45-56.45-56.45h-21.55c-1,8.58-3.52,16.7-7.29,24.08,.15,.29,.3,.58,.45,.87h27.81c17.34,0,31.42,13.3,32.06,30.29,.02,.62,.02,1.24,.01,1.85,8.46,4.17,15.97,9.97,22.14,16.98,1.83-5.55,2.83-11.47,2.83-17.63Z"/><path class="b" d="M474.13,512.64h-22.42c.76,3.2,1.31,6.48,1.63,9.83h21.38c5.4,0,10.66,.62,15.73,1.77-2.2-6.68-8.76-11.6-16.31-11.6Z"/><path class="c" d="M544.19,512.64c-1.25-5.24-3.06-10.25-5.39-14.98-.14-.29-.3-.58-.45-.87-2.72-5.34-6.1-10.28-10.02-14.74-6.17-7.01-13.68-12.81-22.14-16.98-4.96-2.45-10.24-4.32-15.76-5.57-5.06-1.14-10.32-1.77-15.73-1.77h-21.38c.21,2.2,.32,4.43,.32,6.69,0,2.8-.18,5.57-.5,8.29h21.55c31.13,0,56.45,25.32,56.45,56.45,0,6.16-1,12.08-2.83,17.63,3.92,4.46,7.29,9.41,10.02,14.74,3.77-7.38,6.3-15.5,7.29-24.08,.32-2.72,.5-5.48,.5-8.29,0-2.26-.12-4.48-.32-6.69-.31-3.35-.87-6.63-1.63-9.83Z"/><path class="c" d="M506.19,527.95c-.64-16.99-14.72-30.29-32.06-30.29h-27.81c2.33,4.72,4.15,9.74,5.39,14.98h22.42c7.56,0,14.11,4.92,16.31,11.6,5.52,1.25,10.8,3.12,15.76,5.57,.01-.62,.01-1.23-.01-1.85Z"/><path class="b" d="M531.17,593.9c0-31.13-25.32-56.45-56.45-56.45h-21.55c-1,8.58-3.52,16.7-7.29,24.08,.15,.29,.3,.58,.45,.87h27.81c17.34,0,31.42,13.3,32.06,30.29,.02,.62,.02,1.24,.01,1.85,8.46,4.17,15.97,9.97,22.14,16.98,1.83-5.55,2.83-11.47,2.83-17.63Z"/><path class="b" d="M474.13,577.38h-22.42c.76,3.2,1.31,6.48,1.63,9.83h21.38c5.4,0,10.66,.62,15.73,1.77-2.2-6.68-8.76-11.6-16.31-11.6Z"/><path class="c" d="M544.19,577.38c-1.25-5.24-3.06-10.25-5.39-14.98-.14-.29-.3-.58-.45-.87-2.72-5.34-6.1-10.28-10.02-14.74-6.17-7.01-13.68-12.81-22.14-16.98-4.96-2.45-10.24-4.32-15.76-5.57-5.06-1.14-10.32-1.77-15.73-1.77h-21.38c.21,2.2,.32,4.43,.32,6.69,0,2.8-.18,5.57-.5,8.29h21.55c31.13,0,56.45,25.32,56.45,56.45,0,6.16-1,12.08-2.83,17.63,3.92,4.46,7.29,9.41,10.02,14.74,3.77-7.38,6.3-15.5,7.29-24.08,.32-2.72,.5-5.48,.5-8.29,0-2.26-.12-4.48-.32-6.69-.31-3.35-.87-6.63-1.63-9.83Z"/><path class="c" d="M506.19,592.69c-.64-16.99-14.72-30.29-32.06-30.29h-27.81c2.33,4.72,4.15,9.74,5.39,14.98h22.42c7.56,0,14.11,4.92,16.31,11.6,5.52,1.25,10.8,3.12,15.76,5.57,.01-.62,.01-1.23-.01-1.85Z"/><path class="b" d="M474.71,602.19h-21.55c-1,8.58-3.52,16.7-7.29,24.08,.15,.29,.3,.58,.45,.87h27.81c13.74,0,25.43,8.36,30.01,20.28h25.91c-5.22-25.77-28.04-45.23-55.33-45.23Z"/><path class="b" d="M474.13,642.12h-22.42c.41,1.74,.78,3.51,1.06,5.3h33.83c-3.15-3.24-7.6-5.3-12.47-5.3Z"/><path class="c" d="M538.8,627.15c-.14-.29-.3-.58-.45-.87-2.72-5.34-6.1-10.28-10.02-14.74-6.17-7.01-13.68-12.81-22.14-16.98-4.96-2.45-10.24-4.32-15.76-5.57-5.06-1.14-10.32-1.77-15.73-1.77h-21.38c.21,2.2,.32,4.43,.32,6.69,0,2.8-.18,5.57-.5,8.29h21.55c27.29,0,50.11,19.46,55.33,45.23h15.21c-.28-1.79-.65-3.56-1.06-5.3-1.25-5.24-3.06-10.25-5.39-14.98Z"/><path class="c" d="M474.13,627.15h-27.81c2.33,4.72,4.15,9.74,5.39,14.98h22.42c4.87,0,9.33,2.06,12.47,5.3h17.54c-4.58-11.92-16.27-20.28-30.01-20.28Z"/><path class="b" d="M382.23,4.53c5.4,0,10.66,.62,15.73,1.77-.78-2.37-2.11-4.51-3.84-6.3h-33.83c.24,1.5,.42,3.01,.57,4.53h21.38Z"/><path class="b" d="M413.71,11.87c8.46,4.17,15.97,9.97,22.14,16.98,1.83-5.55,2.83-11.47,2.83-17.63,0-3.84-.39-7.59-1.12-11.22h-25.91c1.2,3.12,1.92,6.49,2.05,10.01,.02,.62,.02,1.24,.01,1.85Z"/><path class="c" d="M413.71,11.87c.01-.62,.01-1.23-.01-1.85-.13-3.53-.85-6.89-2.05-10.01h-17.54c1.73,1.79,3.06,3.93,3.84,6.3,5.52,1.25,10.8,3.12,15.76,5.57Z"/><path class="c" d="M438.68,11.22c0,6.16-1,12.08-2.83,17.63,3.92,4.46,7.29,9.41,10.02,14.74,3.77-7.38,6.3-15.5,7.29-24.08,.32-2.72,.5-5.48,.5-8.29,0-2.26-.12-4.48-.32-6.69-.14-1.53-.33-3.04-.57-4.53h-15.21c.73,3.63,1.12,7.38,1.12,11.22Z"/><path class="b" d="M381.64,44.47c17.34,0,31.42,13.3,32.06,30.29,.02,.62,.02,1.24,.01,1.85,8.46,4.17,15.97,9.97,22.14,16.98,1.83-5.55,2.83-11.47,2.83-17.63,0-31.13-25.32-56.45-56.45-56.45h-21.55c-1,8.58-3.52,16.7-7.29,24.08,.15,.29,.3,.58,.45,.87h27.81Z"/><path class="b" d="M397.95,71.04c-2.2-6.68-8.76-11.6-16.31-11.6h-22.42c.76,3.2,1.31,6.48,1.63,9.83h21.38c5.4,0,10.66,.62,15.73,1.77Z"/><path class="c" d="M438.68,75.96c0,6.16-1,12.08-2.83,17.63,3.92,4.46,7.29,9.41,10.02,14.74,3.77-7.38,6.3-15.5,7.29-24.08,.32-2.72,.5-5.48,.5-8.29,0-2.26-.12-4.48-.32-6.69-.31-3.35-.87-6.63-1.63-9.83-1.25-5.24-3.06-10.25-5.39-14.98-.14-.29-.3-.58-.45-.87-2.73-5.34-6.1-10.28-10.02-14.74-6.17-7.01-13.68-12.81-22.14-16.98-4.96-2.45-10.24-4.32-15.76-5.57-5.06-1.14-10.32-1.77-15.73-1.77h-21.38c.21,2.2,.32,4.43,.32,6.69,0,2.8-.18,5.57-.5,8.29h21.55c31.13,0,56.45,25.32,56.45,56.45Z"/><path class="c" d="M397.95,71.04c5.52,1.25,10.8,3.12,15.76,5.57,.01-.62,.01-1.23-.01-1.85-.64-16.99-14.72-30.29-32.06-30.29h-27.81c2.33,4.72,4.15,9.74,5.39,14.98h22.42c7.56,0,14.11,4.92,16.31,11.6Z"/><path class="b" d="M381.64,109.21c17.34,0,31.42,13.3,32.06,30.29,.02,.62,.02,1.24,.01,1.85,8.46,4.17,15.97,9.97,22.14,16.98,1.83-5.55,2.83-11.47,2.83-17.63,0-31.13-25.32-56.45-56.45-56.45h-21.55c-1,8.58-3.52,16.7-7.29,24.08,.15,.29,.3,.58,.45,.87h27.81Z"/><path class="b" d="M397.95,135.78c-2.2-6.68-8.76-11.6-16.31-11.6h-22.42c.76,3.2,1.31,6.48,1.63,9.83h21.38c5.4,0,10.66,.62,15.73,1.77Z"/><path class="c" d="M438.68,140.71c0,6.16-1,12.08-2.83,17.63,3.92,4.46,7.29,9.41,10.02,14.74,3.77-7.38,6.3-15.5,7.29-24.08,.32-2.72,.5-5.48,.5-8.29,0-2.26-.12-4.48-.32-6.69-.31-3.35-.87-6.63-1.63-9.83-1.25-5.24-3.06-10.25-5.39-14.98-.14-.29-.3-.58-.45-.87-2.73-5.34-6.1-10.28-10.02-14.74-6.17-7.01-13.68-12.81-22.14-16.98-4.96-2.45-10.24-4.32-15.76-5.57-5.06-1.14-10.32-1.77-15.73-1.77h-21.38c.21,2.2,.32,4.43,.32,6.69,0,2.8-.18,5.57-.5,8.29h21.55c31.13,0,56.45,25.32,56.45,56.45Z"/><path class="c" d="M397.95,135.78c5.52,1.25,10.8,3.12,15.76,5.57,.01-.62,.01-1.23-.01-1.85-.64-16.99-14.72-30.29-32.06-30.29h-27.81c2.33,4.72,4.15,9.74,5.39,14.98h22.42c7.56,0,14.11,4.92,16.31,11.6Z"/><path class="b" d="M381.64,173.95c17.34,0,31.42,13.3,32.06,30.29,.02,.62,.02,1.24,.01,1.85,8.46,4.17,15.97,9.97,22.14,16.98,1.83-5.55,2.83-11.47,2.83-17.63,0-31.13-25.32-56.45-56.45-56.45h-21.55c-1,8.58-3.52,16.7-7.29,24.08,.15,.29,.3,.58,.45,.87h27.81Z"/><path class="b" d="M397.95,200.53c-2.2-6.68-8.76-11.6-16.31-11.6h-22.42c.76,3.2,1.31,6.48,1.63,9.83h21.38c5.4,0,10.66,.62,15.73,1.77Z"/><path class="c" d="M397.95,200.53c5.52,1.25,10.8,3.12,15.76,5.57,.01-.62,.01-1.23-.01-1.85-.64-16.99-14.72-30.29-32.06-30.29h-27.81c2.33,4.72,4.15,9.74,5.39,14.98h22.42c7.56,0,14.11,4.92,16.31,11.6Z"/><path class="c" d="M438.68,205.45c0,6.16-1,12.08-2.83,17.63,3.92,4.46,7.29,9.41,10.02,14.74,3.77-7.38,6.3-15.5,7.29-24.08,.32-2.72,.5-5.48,.5-8.29,0-2.26-.12-4.48-.32-6.69-.31-3.35-.87-6.63-1.63-9.83-1.25-5.24-3.06-10.25-5.39-14.98-.14-.29-.3-.58-.45-.87-2.73-5.34-6.1-10.28-10.02-14.74-6.17-7.01-13.68-12.81-22.14-16.98-4.96-2.45-10.24-4.32-15.76-5.57-5.06-1.14-10.32-1.77-15.73-1.77h-21.38c.21,2.2,.32,4.43,.32,6.69,0,2.8-.18,5.57-.5,8.29h21.55c31.13,0,56.45,25.32,56.45,56.45Z"/><path class="b" d="M413.7,268.98c.02,.62,.02,1.24,.01,1.85,8.46,4.17,15.97,9.97,22.14,16.98,1.83-5.55,2.83-11.47,2.83-17.63,0-31.13-25.32-56.45-56.45-56.45h-21.55c-1,8.58-3.52,16.7-7.29,24.08,.15,.29,.3,.58,.45,.87h27.81c17.34,0,31.42,13.3,32.06,30.29Z"/><path class="b" d="M397.95,265.27c-2.2-6.68-8.76-11.6-16.31-11.6h-22.42c.76,3.2,1.31,6.48,1.63,9.83h21.38c5.4,0,10.66,.62,15.73,1.77Z"/><path class="c" d="M451.71,253.67c-1.25-5.24-3.06-10.25-5.39-14.98-.14-.29-.3-.58-.45-.87-2.73-5.34-6.1-10.28-10.02-14.74-6.17-7.01-13.68-12.81-22.14-16.98-4.96-2.45-10.24-4.32-15.76-5.57-5.06-1.14-10.32-1.77-15.73-1.77h-21.38c.21,2.2,.32,4.43,.32,6.69,0,2.8-.18,5.57-.5,8.29h21.55c31.13,0,56.45,25.32,56.45,56.45,0,6.16-1,12.08-2.83,17.63,3.92,4.46,7.29,9.41,10.02,14.74,3.77-7.38,6.3-15.5,7.29-24.08,.32-2.72,.5-5.48,.5-8.29,0-2.26-.12-4.48-.32-6.69-.31-3.35-.87-6.63-1.63-9.83Z"/><path class="c" d="M397.95,265.27c5.52,1.25,10.8,3.12,15.76,5.57,.01-.62,.01-1.23-.01-1.85-.64-16.99-14.72-30.29-32.06-30.29h-27.81c2.33,4.72,4.15,9.74,5.39,14.98h22.42c7.56,0,14.11,4.92,16.31,11.6Z"/><path class="b" d="M413.7,333.73c.02,.62,.02,1.24,.01,1.85,8.46,4.17,15.97,9.97,22.14,16.98,1.83-5.55,2.83-11.47,2.83-17.63,0-31.13-25.32-56.45-56.45-56.45h-21.55c-1,8.58-3.52,16.7-7.29,24.08,.15,.29,.3,.58,.45,.87h27.81c17.34,0,31.42,13.3,32.06,30.29Z"/><path class="b" d="M397.95,330.01c-2.2-6.68-8.76-11.6-16.31-11.6h-22.42c.76,3.2,1.31,6.48,1.63,9.83h21.38c5.4,0,10.66,.62,15.73,1.77Z"/><path class="c" d="M451.71,318.41c-1.25-5.24-3.06-10.25-5.39-14.98-.14-.29-.3-.58-.45-.87-2.73-5.34-6.1-10.28-10.02-14.74-6.17-7.01-13.68-12.81-22.14-16.98-4.96-2.45-10.24-4.32-15.76-5.57-5.06-1.14-10.32-1.77-15.73-1.77h-21.38c.21,2.2,.32,4.43,.32,6.69,0,2.8-.18,5.57-.5,8.29h21.55c31.13,0,56.45,25.32,56.45,56.45,0,6.16-1,12.08-2.83,17.63,3.92,4.46,7.29,9.41,10.02,14.74,3.77-7.38,6.3-15.5,7.29-24.08,.32-2.72,.5-5.48,.5-8.29,0-2.26-.12-4.48-.32-6.69-.31-3.35-.87-6.63-1.63-9.83Z"/><path class="c" d="M397.95,330.01c5.52,1.25,10.8,3.12,15.76,5.57,.01-.62,.01-1.23-.01-1.85-.64-16.99-14.72-30.29-32.06-30.29h-27.81c2.33,4.72,4.15,9.74,5.39,14.98h22.42c7.56,0,14.11,4.92,16.31,11.6Z"/><path class="b" d="M413.7,398.47c.02,.62,.02,1.24,.01,1.85,8.46,4.17,15.97,9.97,22.14,16.98,1.83-5.55,2.83-11.47,2.83-17.63,0-31.13-25.32-56.45-56.45-56.45h-21.55c-1,8.58-3.52,16.7-7.29,24.08,.15,.29,.3,.58,.45,.87h27.81c17.34,0,31.42,13.3,32.06,30.29Z"/><path class="b" d="M397.95,394.75c-2.2-6.68-8.76-11.6-16.31-11.6h-22.42c.76,3.2,1.31,6.48,1.63,9.83h21.38c5.4,0,10.66,.62,15.73,1.77Z"/><path class="c" d="M451.71,383.15c-1.25-5.24-3.06-10.25-5.39-14.98-.14-.29-.3-.58-.45-.87-2.73-5.34-6.1-10.28-10.02-14.74-6.17-7.01-13.68-12.81-22.14-16.98-4.96-2.45-10.24-4.32-15.76-5.57-5.06-1.14-10.32-1.77-15.73-1.77h-21.38c.21,2.2,.32,4.43,.32,6.69,0,2.8-.18,5.57-.5,8.29h21.55c31.13,0,56.45,25.32,56.45,56.45,0,6.16-1,12.08-2.83,17.63,3.92,4.46,7.29,9.41,10.02,14.74,3.77-7.38,6.3-15.5,7.29-24.08,.32-2.72,.5-5.48,.5-8.29,0-2.26-.12-4.48-.32-6.69-.31-3.35-.87-6.63-1.63-9.83Z"/><path class="c" d="M397.95,394.75c5.52,1.25,10.8,3.12,15.76,5.57,.01-.62,.01-1.23-.01-1.85-.64-16.99-14.72-30.29-32.06-30.29h-27.81c2.33,4.72,4.15,9.74,5.39,14.98h22.42c7.56,0,14.11,4.92,16.31,11.6Z"/><path class="b" d="M438.68,464.42c0-31.13-25.32-56.45-56.45-56.45h-21.55c-1,8.58-3.52,16.7-7.29,24.08,.15,.29,.3,.58,.45,.87h27.81c17.34,0,31.42,13.3,32.06,30.29,.02,.62,.02,1.24,.01,1.85,8.46,4.17,15.97,9.97,22.14,16.98,1.83-5.55,2.83-11.47,2.83-17.63Z"/><path class="b" d="M381.64,447.9h-22.42c.76,3.2,1.31,6.48,1.63,9.83h21.38c5.4,0,10.66,.62,15.73,1.77-2.2-6.68-8.76-11.6-16.31-11.6Z"/><path class="c" d="M451.71,447.9c-1.25-5.24-3.06-10.25-5.39-14.98-.14-.29-.3-.58-.45-.87-2.73-5.34-6.1-10.28-10.02-14.74-6.17-7.01-13.68-12.81-22.14-16.98-4.96-2.45-10.24-4.32-15.76-5.57-5.06-1.14-10.32-1.77-15.73-1.77h-21.38c.21,2.2,.32,4.43,.32,6.69,0,2.8-.18,5.57-.5,8.29h21.55c31.13,0,56.45,25.32,56.45,56.45,0,6.16-1,12.08-2.83,17.63,3.92,4.46,7.29,9.41,10.02,14.74,3.77-7.38,6.3-15.5,7.29-24.08,.32-2.72,.5-5.48,.5-8.29,0-2.26-.12-4.48-.32-6.69-.31-3.35-.87-6.63-1.63-9.83Z"/><path class="c" d="M413.7,463.21c-.64-16.99-14.72-30.29-32.06-30.29h-27.81c2.33,4.72,4.15,9.74,5.39,14.98h22.42c7.56,0,14.11,4.92,16.31,11.6,5.52,1.25,10.8,3.12,15.76,5.57,.01-.62,.01-1.23-.01-1.85Z"/><path class="b" d="M438.68,529.16c0-31.13-25.32-56.45-56.45-56.45h-21.55c-1,8.58-3.52,16.7-7.29,24.08,.15,.29,.3,.58,.45,.87h27.81c17.34,0,31.42,13.3,32.06,30.29,.02,.62,.02,1.24,.01,1.85,8.46,4.17,15.97,9.97,22.14,16.98,1.83-5.55,2.83-11.47,2.83-17.63Z"/><path class="b" d="M381.64,512.64h-22.42c.76,3.2,1.31,6.48,1.63,9.83h21.38c5.4,0,10.66,.62,15.73,1.77-2.2-6.68-8.76-11.6-16.31-11.6Z"/><path class="c" d="M451.71,512.64c-1.25-5.24-3.06-10.25-5.39-14.98-.14-.29-.3-.58-.45-.87-2.73-5.34-6.1-10.28-10.02-14.74-6.17-7.01-13.68-12.81-22.14-16.98-4.96-2.45-10.24-4.32-15.76-5.57-5.06-1.14-10.32-1.77-15.73-1.77h-21.38c.21,2.2,.32,4.43,.32,6.69,0,2.8-.18,5.57-.5,8.29h21.55c31.13,0,56.45,25.32,56.45,56.45,0,6.16-1,12.08-2.83,17.63,3.92,4.46,7.29,9.41,10.02,14.74,3.77-7.38,6.3-15.5,7.29-24.08,.32-2.72,.5-5.48,.5-8.29,0-2.26-.12-4.48-.32-6.69-.31-3.35-.87-6.63-1.63-9.83Z"/><path class="c" d="M413.7,527.95c-.64-16.99-14.72-30.29-32.06-30.29h-27.81c2.33,4.72,4.15,9.74,5.39,14.98h22.42c7.56,0,14.11,4.92,16.31,11.6,5.52,1.25,10.8,3.12,15.76,5.57,.01-.62,.01-1.23-.01-1.85Z"/><path class="b" d="M438.68,593.9c0-31.13-25.32-56.45-56.45-56.45h-21.55c-1,8.58-3.52,16.7-7.29,24.08,.15,.29,.3,.58,.45,.87h27.81c17.34,0,31.42,13.3,32.06,30.29,.02,.62,.02,1.24,.01,1.85,8.46,4.17,15.97,9.97,22.14,16.98,1.83-5.55,2.83-11.47,2.83-17.63Z"/><path class="b" d="M381.64,577.38h-22.42c.76,3.2,1.31,6.48,1.63,9.83h21.38c5.4,0,10.66,.62,15.73,1.77-2.2-6.68-8.76-11.6-16.31-11.6Z"/><path class="c" d="M451.71,577.38c-1.25-5.24-3.06-10.25-5.39-14.98-.14-.29-.3-.58-.45-.87-2.73-5.34-6.1-10.28-10.02-14.74-6.17-7.01-13.68-12.81-22.14-16.98-4.96-2.45-10.24-4.32-15.76-5.57-5.06-1.14-10.32-1.77-15.73-1.77h-21.38c.21,2.2,.32,4.43,.32,6.69,0,2.8-.18,5.57-.5,8.29h21.55c31.13,0,56.45,25.32,56.45,56.45,0,6.16-1,12.08-2.83,17.63,3.92,4.46,7.29,9.41,10.02,14.74,3.77-7.38,6.3-15.5,7.29-24.08,.32-2.72,.5-5.48,.5-8.29,0-2.26-.12-4.48-.32-6.69-.31-3.35-.87-6.63-1.63-9.83Z"/><path class="c" d="M413.7,592.69c-.64-16.99-14.72-30.29-32.06-30.29h-27.81c2.33,4.72,4.15,9.74,5.39,14.98h22.42c7.56,0,14.11,4.92,16.31,11.6,5.52,1.25,10.8,3.12,15.76,5.57,.01-.62,.01-1.23-.01-1.85Z"/><path class="b" d="M382.23,602.19h-21.55c-1,8.58-3.52,16.7-7.29,24.08,.15,.29,.3,.58,.45,.87h27.81c13.74,0,25.43,8.36,30.01,20.28h25.91c-5.22-25.77-28.04-45.23-55.33-45.23Z"/><path class="b" d="M381.64,642.12h-22.42c.41,1.74,.78,3.51,1.06,5.3h33.83c-3.15-3.24-7.6-5.3-12.47-5.3Z"/><path class="c" d="M446.32,627.15c-.14-.29-.3-.58-.45-.87-2.73-5.34-6.1-10.28-10.02-14.74-6.17-7.01-13.68-12.81-22.14-16.98-4.96-2.45-10.24-4.32-15.76-5.57-5.06-1.14-10.32-1.77-15.73-1.77h-21.38c.21,2.2,.32,4.43,.32,6.69,0,2.8-.18,5.57-.5,8.29h21.55c27.29,0,50.11,19.46,55.33,45.23h15.21c-.28-1.79-.65-3.56-1.06-5.3-1.25-5.24-3.06-10.25-5.39-14.98Z"/><path class="c" d="M381.64,627.15h-27.81c2.33,4.72,4.15,9.74,5.39,14.98h22.42c4.87,0,9.33,2.06,12.47,5.3h17.54c-4.58-11.92-16.27-20.28-30.01-20.28Z"/><path class="b" d="M289.74,4.53c5.4,0,10.66,.62,15.73,1.77-.78-2.37-2.11-4.51-3.84-6.3h-33.83c.24,1.5,.42,3.01,.57,4.53h21.38Z"/><path class="b" d="M321.22,11.87c8.46,4.17,15.97,9.97,22.14,16.98,1.83-5.55,2.83-11.47,2.83-17.63,0-3.84-.39-7.59-1.12-11.22h-25.91c1.2,3.12,1.92,6.49,2.05,10.01,.02,.62,.02,1.24,.01,1.85Z"/><path class="c" d="M321.22,11.87c.01-.62,.01-1.23-.01-1.85-.13-3.53-.85-6.89-2.05-10.01h-17.54c1.73,1.79,3.06,3.93,3.84,6.3,5.52,1.25,10.8,3.12,15.76,5.57Z"/><path class="c" d="M346.19,11.22c0,6.16-1,12.08-2.83,17.63,3.92,4.46,7.29,9.41,10.02,14.74,3.77-7.38,6.3-15.5,7.29-24.08,.32-2.72,.5-5.48,.5-8.29,0-2.26-.12-4.48-.32-6.69-.14-1.53-.33-3.04-.57-4.53h-15.21c.73,3.63,1.12,7.38,1.12,11.22Z"/><path class="b" d="M289.15,44.47c17.34,0,31.42,13.3,32.06,30.29,.02,.62,.02,1.24,.01,1.85,8.46,4.17,15.97,9.97,22.14,16.98,1.83-5.55,2.83-11.47,2.83-17.63,0-31.13-25.32-56.45-56.45-56.45h-21.55c-1,8.58-3.52,16.7-7.29,24.08,.15,.29,.3,.58,.45,.87h27.81Z"/><path class="b" d="M305.46,71.04c-2.2-6.68-8.76-11.6-16.31-11.6h-22.42c.76,3.2,1.31,6.48,1.63,9.83h21.38c5.4,0,10.66,.62,15.73,1.77Z"/><path class="c" d="M346.19,75.96c0,6.16-1,12.08-2.83,17.63,3.92,4.46,7.29,9.41,10.02,14.74,3.77-7.38,6.3-15.5,7.29-24.08,.32-2.72,.5-5.48,.5-8.29,0-2.26-.12-4.48-.32-6.69-.31-3.35-.87-6.63-1.63-9.83-1.25-5.24-3.06-10.25-5.39-14.98-.14-.29-.3-.58-.45-.87-2.73-5.34-6.1-10.28-10.02-14.74-6.17-7.01-13.68-12.81-22.14-16.98-4.96-2.45-10.24-4.32-15.76-5.57-5.06-1.14-10.32-1.77-15.73-1.77h-21.38c.21,2.2,.32,4.43,.32,6.69,0,2.8-.18,5.57-.5,8.29h21.55c31.13,0,56.45,25.32,56.45,56.45Z"/><path class="c" d="M305.46,71.04c5.52,1.25,10.8,3.12,15.76,5.57,.01-.62,.01-1.23-.01-1.85-.64-16.99-14.72-30.29-32.06-30.29h-27.81c2.33,4.72,4.15,9.74,5.39,14.98h22.42c7.56,0,14.11,4.92,16.31,11.6Z"/><path class="b" d="M289.15,109.21c17.34,0,31.42,13.3,32.06,30.29,.02,.62,.02,1.24,.01,1.85,8.46,4.17,15.97,9.97,22.14,16.98,1.83-5.55,2.83-11.47,2.83-17.63,0-31.13-25.32-56.45-56.45-56.45h-21.55c-1,8.58-3.52,16.7-7.29,24.08,.15,.29,.3,.58,.45,.87h27.81Z"/><path class="b" d="M305.46,135.78c-2.2-6.68-8.76-11.6-16.31-11.6h-22.42c.76,3.2,1.31,6.48,1.63,9.83h21.38c5.4,0,10.66,.62,15.73,1.77Z"/><path class="c" d="M346.19,140.71c0,6.16-1,12.08-2.83,17.63,3.92,4.46,7.29,9.41,10.02,14.74,3.77-7.38,6.3-15.5,7.29-24.08,.32-2.72,.5-5.48,.5-8.29,0-2.26-.12-4.48-.32-6.69-.31-3.35-.87-6.63-1.63-9.83-1.25-5.24-3.06-10.25-5.39-14.98-.14-.29-.3-.58-.45-.87-2.73-5.34-6.1-10.28-10.02-14.74-6.17-7.01-13.68-12.81-22.14-16.98-4.96-2.45-10.24-4.32-15.76-5.57-5.06-1.14-10.32-1.77-15.73-1.77h-21.38c.21,2.2,.32,4.43,.32,6.69,0,2.8-.18,5.57-.5,8.29h21.55c31.13,0,56.45,25.32,56.45,56.45Z"/><path class="c" d="M305.46,135.78c5.52,1.25,10.8,3.12,15.76,5.57,.01-.62,.01-1.23-.01-1.85-.64-16.99-14.72-30.29-32.06-30.29h-27.81c2.33,4.72,4.15,9.74,5.39,14.98h22.42c7.56,0,14.11,4.92,16.31,11.6Z"/><path class="b" d="M321.21,204.24c.02,.62,.02,1.24,.01,1.85,8.46,4.17,15.97,9.97,22.14,16.98,1.83-5.55,2.83-11.47,2.83-17.63,0-31.13-25.32-56.45-56.45-56.45h-21.55c-1,8.58-3.52,16.7-7.29,24.08,.15,.29,.3,.58,.45,.87h27.81c17.34,0,31.42,13.3,32.06,30.29Z"/><path class="b" d="M305.46,200.53c-2.2-6.68-8.76-11.6-16.31-11.6h-22.42c.76,3.2,1.31,6.48,1.63,9.83h21.38c5.4,0,10.66,.62,15.73,1.77Z"/><path class="c" d="M346.19,205.45c0,6.16-1,12.08-2.83,17.63,3.92,4.46,7.29,9.41,10.02,14.74,3.77-7.38,6.3-15.5,7.29-24.08,.32-2.72,.5-5.48,.5-8.29,0-2.26-.12-4.48-.32-6.69-.31-3.35-.87-6.63-1.63-9.83-1.25-5.24-3.06-10.25-5.39-14.98-.14-.29-.3-.58-.45-.87-2.73-5.34-6.1-10.28-10.02-14.74-6.17-7.01-13.68-12.81-22.14-16.98-4.96-2.45-10.24-4.32-15.76-5.57-5.06-1.14-10.32-1.77-15.73-1.77h-21.38c.21,2.2,.32,4.43,.32,6.69,0,2.8-.18,5.57-.5,8.29h21.55c31.13,0,56.45,25.32,56.45,56.45Z"/><path class="c" d="M305.46,200.53c5.52,1.25,10.8,3.12,15.76,5.57,.01-.62,.01-1.23-.01-1.85-.64-16.99-14.72-30.29-32.06-30.29h-27.81c2.33,4.72,4.15,9.74,5.39,14.98h22.42c7.56,0,14.11,4.92,16.31,11.6Z"/><path class="b" d="M321.21,268.98c.02,.62,.02,1.24,.01,1.85,8.46,4.17,15.97,9.97,22.14,16.98,1.83-5.55,2.83-11.47,2.83-17.63,0-31.13-25.32-56.45-56.45-56.45h-21.55c-1,8.58-3.52,16.7-7.29,24.08,.15,.29,.3,.58,.45,.87h27.81c17.34,0,31.42,13.3,32.06,30.29Z"/><path class="b" d="M305.46,265.27c-2.2-6.68-8.76-11.6-16.31-11.6h-22.42c.76,3.2,1.31,6.48,1.63,9.83h21.38c5.4,0,10.66,.62,15.73,1.77Z"/><path class="c" d="M305.46,265.27c5.52,1.25,10.8,3.12,15.76,5.57,.01-.62,.01-1.23-.01-1.85-.64-16.99-14.72-30.29-32.06-30.29h-27.81c2.33,4.72,4.15,9.74,5.39,14.98h22.42c7.56,0,14.11,4.92,16.31,11.6Z"/><path class="c" d="M346.19,270.19c0,6.16-1,12.08-2.83,17.63,3.92,4.46,7.29,9.41,10.02,14.74,3.77-7.38,6.3-15.5,7.29-24.08,.32-2.72,.5-5.48,.5-8.29,0-2.26-.12-4.48-.32-6.69-.31-3.35-.87-6.63-1.63-9.83-1.25-5.24-3.06-10.25-5.39-14.98-.14-.29-.3-.58-.45-.87-2.73-5.34-6.1-10.28-10.02-14.74-6.17-7.01-13.68-12.81-22.14-16.98-4.96-2.45-10.24-4.32-15.76-5.57-5.06-1.14-10.32-1.77-15.73-1.77h-21.38c.21,2.2,.32,4.43,.32,6.69,0,2.8-.18,5.57-.5,8.29h21.55c31.13,0,56.45,25.32,56.45,56.45Z"/><path class="b" d="M321.21,333.73c.02,.62,.02,1.24,.01,1.85,8.46,4.17,15.97,9.97,22.14,16.98,1.83-5.55,2.83-11.47,2.83-17.63,0-31.13-25.32-56.45-56.45-56.45h-21.55c-1,8.58-3.52,16.7-7.29,24.08,.15,.29,.3,.58,.45,.87h27.81c17.34,0,31.42,13.3,32.06,30.29Z"/><path class="b" d="M305.46,330.01c-2.2-6.68-8.76-11.6-16.31-11.6h-22.42c.76,3.2,1.31,6.48,1.63,9.83h21.38c5.4,0,10.66,.62,15.73,1.77Z"/><path class="c" d="M346.19,334.93c0,6.16-1,12.08-2.83,17.63,3.92,4.46,7.29,9.41,10.02,14.74,3.77-7.38,6.3-15.5,7.29-24.08,.32-2.72,.5-5.48,.5-8.29,0-2.26-.12-4.48-.32-6.69-.31-3.35-.87-6.63-1.63-9.83-1.25-5.24-3.06-10.25-5.39-14.98-.14-.29-.3-.58-.45-.87-2.73-5.34-6.1-10.28-10.02-14.74-6.17-7.01-13.68-12.81-22.14-16.98-4.96-2.45-10.24-4.32-15.76-5.57-5.06-1.14-10.32-1.77-15.73-1.77h-21.38c.21,2.2,.32,4.43,.32,6.69,0,2.8-.18,5.57-.5,8.29h21.55c31.13,0,56.45,25.32,56.45,56.45Z"/><path class="c" d="M305.46,330.01c5.52,1.25,10.8,3.12,15.76,5.57,.01-.62,.01-1.23-.01-1.85-.64-16.99-14.72-30.29-32.06-30.29h-27.81c2.33,4.72,4.15,9.74,5.39,14.98h22.42c7.56,0,14.11,4.92,16.31,11.6Z"/><path class="b" d="M321.21,398.47c.02,.62,.02,1.24,.01,1.85,8.46,4.17,15.97,9.97,22.14,16.98,1.83-5.55,2.83-11.47,2.83-17.63,0-31.13-25.32-56.45-56.45-56.45h-21.55c-1,8.58-3.52,16.7-7.29,24.08,.15,.29,.3,.58,.45,.87h27.81c17.34,0,31.42,13.3,32.06,30.29Z"/><path class="b" d="M305.46,394.75c-2.2-6.68-8.76-11.6-16.31-11.6h-22.42c.76,3.2,1.31,6.48,1.63,9.83h21.38c5.4,0,10.66,.62,15.73,1.77Z"/><path class="c" d="M305.46,394.75c5.52,1.25,10.8,3.12,15.76,5.57,.01-.62,.01-1.23-.01-1.85-.64-16.99-14.72-30.29-32.06-30.29h-27.81c2.33,4.72,4.15,9.74,5.39,14.98h22.42c7.56,0,14.11,4.92,16.31,11.6Z"/><path class="c" d="M346.19,399.68c0,6.16-1,12.08-2.83,17.63,3.92,4.46,7.29,9.41,10.02,14.74,3.77-7.38,6.3-15.5,7.29-24.08,.32-2.72,.5-5.48,.5-8.29,0-2.26-.12-4.48-.32-6.69-.31-3.35-.87-6.63-1.63-9.83-1.25-5.24-3.06-10.25-5.39-14.98-.14-.29-.3-.58-.45-.87-2.73-5.34-6.1-10.28-10.02-14.74-6.17-7.01-13.68-12.81-22.14-16.98-4.96-2.45-10.24-4.32-15.76-5.57-5.06-1.14-10.32-1.77-15.73-1.77h-21.38c.21,2.2,.32,4.43,.32,6.69,0,2.8-.18,5.57-.5,8.29h21.55c31.13,0,56.45,25.32,56.45,56.45Z"/><path class="b" d="M321.21,463.21c.02,.62,.02,1.24,.01,1.85,8.46,4.17,15.97,9.97,22.14,16.98,1.83-5.55,2.83-11.47,2.83-17.63,0-31.13-25.32-56.45-56.45-56.45h-21.55c-1,8.58-3.52,16.7-7.29,24.08,.15,.29,.3,.58,.45,.87h27.81c17.34,0,31.42,13.3,32.06,30.29Z"/><path class="b" d="M305.46,459.5c-2.2-6.68-8.76-11.6-16.31-11.6h-22.42c.76,3.2,1.31,6.48,1.63,9.83h21.38c5.4,0,10.66,.62,15.73,1.77Z"/><path class="c" d="M346.19,464.42c0,6.16-1,12.08-2.83,17.63,3.92,4.46,7.29,9.41,10.02,14.74,3.77-7.38,6.3-15.5,7.29-24.08,.32-2.72,.5-5.48,.5-8.29,0-2.26-.12-4.48-.32-6.69-.31-3.35-.87-6.63-1.63-9.83-1.25-5.24-3.06-10.25-5.39-14.98-.14-.29-.3-.58-.45-.87-2.73-5.34-6.1-10.28-10.02-14.74-6.17-7.01-13.68-12.81-22.14-16.98-4.96-2.45-10.24-4.32-15.76-5.57-5.06-1.14-10.32-1.77-15.73-1.77h-21.38c.21,2.2,.32,4.43,.32,6.69,0,2.8-.18,5.57-.5,8.29h21.55c31.13,0,56.45,25.32,56.45,56.45Z"/><path class="c" d="M305.46,459.5c5.52,1.25,10.8,3.12,15.76,5.57,.01-.62,.01-1.23-.01-1.85-.64-16.99-14.72-30.29-32.06-30.29h-27.81c2.33,4.72,4.15,9.74,5.39,14.98h22.42c7.56,0,14.11,4.92,16.31,11.6Z"/><path class="b" d="M346.19,529.16c0-31.13-25.32-56.45-56.45-56.45h-21.55c-1,8.58-3.52,16.7-7.29,24.08,.15,.29,.3,.58,.45,.87h27.81c17.34,0,31.42,13.3,32.06,30.29,.02,.62,.02,1.24,.01,1.85,8.46,4.17,15.97,9.97,22.14,16.98,1.83-5.55,2.83-11.47,2.83-17.63Z"/><path class="b" d="M289.15,512.64h-22.42c.76,3.2,1.31,6.48,1.63,9.83h21.38c5.4,0,10.66,.62,15.73,1.77-2.2-6.68-8.76-11.6-16.31-11.6Z"/><path class="c" d="M359.22,512.64c-1.25-5.24-3.06-10.25-5.39-14.98-.14-.29-.3-.58-.45-.87-2.73-5.34-6.1-10.28-10.02-14.74-6.17-7.01-13.68-12.81-22.14-16.98-4.96-2.45-10.24-4.32-15.76-5.57-5.06-1.14-10.32-1.77-15.73-1.77h-21.38c.21,2.2,.32,4.43,.32,6.69,0,2.8-.18,5.57-.5,8.29h21.55c31.13,0,56.45,25.32,56.45,56.45,0,6.16-1,12.08-2.83,17.63,3.92,4.46,7.29,9.41,10.02,14.74,3.77-7.38,6.3-15.5,7.29-24.08,.32-2.72,.5-5.48,.5-8.29,0-2.26-.12-4.48-.32-6.69-.31-3.35-.87-6.63-1.63-9.83Z"/><path class="c" d="M321.21,527.95c-.64-16.99-14.72-30.29-32.06-30.29h-27.81c2.33,4.72,4.15,9.74,5.39,14.98h22.42c7.56,0,14.11,4.92,16.31,11.6,5.52,1.25,10.8,3.12,15.76,5.57,.01-.62,.01-1.23-.01-1.85Z"/><path class="b" d="M346.19,593.9c0-31.13-25.32-56.45-56.45-56.45h-21.55c-1,8.58-3.52,16.7-7.29,24.08,.15,.29,.3,.58,.45,.87h27.81c17.34,0,31.42,13.3,32.06,30.29,.02,.62,.02,1.24,.01,1.85,8.46,4.17,15.97,9.97,22.14,16.98,1.83-5.55,2.83-11.47,2.83-17.63Z"/><path class="b" d="M289.15,577.38h-22.42c.76,3.2,1.31,6.48,1.63,9.83h21.38c5.4,0,10.66,.62,15.73,1.77-2.2-6.68-8.76-11.6-16.31-11.6Z"/><path class="c" d="M359.22,577.38c-1.25-5.24-3.06-10.25-5.39-14.98-.14-.29-.3-.58-.45-.87-2.73-5.34-6.1-10.28-10.02-14.74-6.17-7.01-13.68-12.81-22.14-16.98-4.96-2.45-10.24-4.32-15.76-5.57-5.06-1.14-10.32-1.77-15.73-1.77h-21.38c.21,2.2,.32,4.43,.32,6.69,0,2.8-.18,5.57-.5,8.29h21.55c31.13,0,56.45,25.32,56.45,56.45,0,6.16-1,12.08-2.83,17.63,3.92,4.46,7.29,9.41,10.02,14.74,3.77-7.38,6.3-15.5,7.29-24.08,.32-2.72,.5-5.48,.5-8.29,0-2.26-.12-4.48-.32-6.69-.31-3.35-.87-6.63-1.63-9.83Z"/><path class="c" d="M321.21,592.69c-.64-16.99-14.72-30.29-32.06-30.29h-27.81c2.33,4.72,4.15,9.74,5.39,14.98h22.42c7.56,0,14.11,4.92,16.31,11.6,5.52,1.25,10.8,3.12,15.76,5.57,.01-.62,.01-1.23-.01-1.85Z"/><path class="b" d="M289.74,602.19h-21.55c-1,8.58-3.52,16.7-7.29,24.08,.15,.29,.3,.58,.45,.87h27.81c13.74,0,25.43,8.36,30.01,20.28h25.91c-5.22-25.77-28.04-45.23-55.33-45.23Z"/><path class="b" d="M289.15,642.12h-22.42c.41,1.74,.78,3.51,1.06,5.3h33.83c-3.15-3.24-7.6-5.3-12.47-5.3Z"/><path class="c" d="M353.83,627.15c-.14-.29-.3-.58-.45-.87-2.73-5.34-6.1-10.28-10.02-14.74-6.17-7.01-13.68-12.81-22.14-16.98-4.96-2.45-10.24-4.32-15.76-5.57-5.06-1.14-10.32-1.77-15.73-1.77h-21.38c.21,2.2,.32,4.43,.32,6.69,0,2.8-.18,5.57-.5,8.29h21.55c27.29,0,50.11,19.46,55.33,45.23h15.21c-.28-1.79-.65-3.56-1.06-5.3-1.25-5.24-3.06-10.25-5.39-14.98Z"/><path class="c" d="M289.15,627.15h-27.81c2.33,4.72,4.15,9.74,5.39,14.98h22.42c4.87,0,9.33,2.06,12.47,5.3h17.54c-4.58-11.92-16.27-20.28-30.01-20.28Z"/><path class="b" d="M197.25,4.53c5.4,0,10.66,.62,15.73,1.77-.78-2.37-2.11-4.51-3.84-6.3h-33.83c.24,1.5,.42,3.01,.57,4.53h21.38Z"/><path class="b" d="M228.73,11.87c8.46,4.17,15.97,9.97,22.14,16.98,1.83-5.55,2.83-11.47,2.83-17.63,0-3.84-.39-7.59-1.12-11.22h-25.91c1.2,3.12,1.92,6.49,2.05,10.01,.02,.62,.02,1.24,.01,1.85Z"/><path class="c" d="M228.73,11.87c.01-.62,.01-1.23-.01-1.85-.13-3.53-.85-6.89-2.05-10.01h-17.54c1.73,1.79,3.06,3.93,3.84,6.3,5.52,1.25,10.8,3.12,15.76,5.57Z"/><path class="c" d="M253.7,11.22c0,6.16-1,12.08-2.83,17.63,3.92,4.46,7.29,9.41,10.02,14.74,3.77-7.38,6.3-15.5,7.29-24.08,.32-2.72,.5-5.48,.5-8.29,0-2.26-.12-4.48-.32-6.69-.14-1.53-.33-3.04-.57-4.53h-15.21c.73,3.63,1.12,7.38,1.12,11.22Z"/><path class="b" d="M196.66,44.47c17.34,0,31.42,13.3,32.06,30.29,.02,.62,.02,1.24,.01,1.85,8.46,4.17,15.97,9.97,22.14,16.98,1.83-5.55,2.83-11.47,2.83-17.63,0-31.13-25.32-56.45-56.46-56.45h-21.55c-1,8.58-3.52,16.7-7.29,24.08,.15,.29,.3,.58,.45,.87h27.81Z"/><path class="b" d="M212.97,71.04c-2.2-6.68-8.76-11.6-16.31-11.6h-22.42c.76,3.2,1.31,6.48,1.63,9.83h21.38c5.4,0,10.66,.62,15.73,1.77Z"/><path class="c" d="M212.97,71.04c5.52,1.25,10.8,3.12,15.76,5.57,.01-.62,.01-1.23-.01-1.85-.64-16.99-14.72-30.29-32.06-30.29h-27.81c2.33,4.72,4.15,9.74,5.39,14.98h22.42c7.56,0,14.11,4.92,16.31,11.6Z"/><path class="c" d="M253.7,75.96c0,6.16-1,12.08-2.83,17.63,3.92,4.46,7.29,9.41,10.02,14.74,3.77-7.38,6.3-15.5,7.29-24.08,.32-2.72,.5-5.48,.5-8.29,0-2.26-.12-4.48-.32-6.69-.31-3.35-.87-6.63-1.63-9.83-1.25-5.24-3.06-10.25-5.39-14.98-.14-.29-.3-.58-.45-.87-2.73-5.34-6.1-10.28-10.02-14.74-6.17-7.01-13.68-12.81-22.14-16.98-4.96-2.45-10.24-4.32-15.76-5.57-5.06-1.14-10.32-1.77-15.73-1.77h-21.38c.21,2.2,.32,4.43,.32,6.69,0,2.8-.18,5.57-.5,8.29h21.55c31.13,0,56.46,25.32,56.46,56.45Z"/><path class="b" d="M228.72,139.5c.02,.62,.02,1.24,.01,1.85,8.46,4.17,15.97,9.97,22.14,16.98,1.83-5.55,2.83-11.47,2.83-17.63,0-31.13-25.32-56.45-56.46-56.45h-21.55c-1,8.58-3.52,16.7-7.29,24.08,.15,.29,.3,.58,.45,.87h27.81c17.34,0,31.42,13.3,32.06,30.29Z"/><path class="b" d="M212.97,135.78c-2.2-6.68-8.76-11.6-16.31-11.6h-22.42c.76,3.2,1.31,6.48,1.63,9.83h21.38c5.4,0,10.66,.62,15.73,1.77Z"/><path class="c" d="M212.97,135.78c5.52,1.25,10.8,3.12,15.76,5.57,.01-.62,.01-1.23-.01-1.85-.64-16.99-14.72-30.29-32.06-30.29h-27.81c2.33,4.72,4.15,9.74,5.39,14.98h22.42c7.56,0,14.11,4.92,16.31,11.6Z"/><path class="c" d="M253.7,140.71c0,6.16-1,12.08-2.83,17.63,3.92,4.46,7.29,9.41,10.02,14.74,3.77-7.38,6.3-15.5,7.29-24.08,.32-2.72,.5-5.48,.5-8.29,0-2.26-.12-4.48-.32-6.69-.31-3.35-.87-6.63-1.63-9.83-1.25-5.24-3.06-10.25-5.39-14.98-.14-.29-.3-.58-.45-.87-2.73-5.34-6.1-10.28-10.02-14.74-6.17-7.01-13.68-12.81-22.14-16.98-4.96-2.45-10.24-4.32-15.76-5.57-5.06-1.14-10.32-1.77-15.73-1.77h-21.38c.21,2.2,.32,4.43,.32,6.69,0,2.8-.18,5.57-.5,8.29h21.55c31.13,0,56.46,25.32,56.46,56.45Z"/><path class="b" d="M228.72,204.24c.02,.62,.02,1.24,.01,1.85,8.46,4.17,15.97,9.97,22.14,16.98,1.83-5.55,2.83-11.47,2.83-17.63,0-31.13-25.32-56.45-56.46-56.45h-21.55c-1,8.58-3.52,16.7-7.29,24.08,.15,.29,.3,.58,.45,.87h27.81c17.34,0,31.42,13.3,32.06,30.29Z"/><path class="b" d="M212.97,200.53c-2.2-6.68-8.76-11.6-16.31-11.6h-22.42c.76,3.2,1.31,6.48,1.63,9.83h21.38c5.4,0,10.66,.62,15.73,1.77Z"/><path class="c" d="M212.97,200.53c5.52,1.25,10.8,3.12,15.76,5.57,.01-.62,.01-1.23-.01-1.85-.64-16.99-14.72-30.29-32.06-30.29h-27.81c2.33,4.72,4.15,9.74,5.39,14.98h22.42c7.56,0,14.11,4.92,16.31,11.6Z"/><path class="c" d="M253.7,205.45c0,6.16-1,12.08-2.83,17.63,3.92,4.46,7.29,9.41,10.02,14.74,3.77-7.38,6.3-15.5,7.29-24.08,.32-2.72,.5-5.48,.5-8.29,0-2.26-.12-4.48-.32-6.69-.31-3.35-.87-6.63-1.63-9.83-1.25-5.24-3.06-10.25-5.39-14.98-.14-.29-.3-.58-.45-.87-2.73-5.34-6.1-10.28-10.02-14.74-6.17-7.01-13.68-12.81-22.14-16.98-4.96-2.45-10.24-4.32-15.76-5.57-5.06-1.14-10.32-1.77-15.73-1.77h-21.38c.21,2.2,.32,4.43,.32,6.69,0,2.8-.18,5.57-.5,8.29h21.55c31.13,0,56.46,25.32,56.46,56.45Z"/><path class="b" d="M228.72,268.98c.02,.62,.02,1.24,.01,1.85,8.46,4.17,15.97,9.97,22.14,16.98,1.83-5.55,2.83-11.47,2.83-17.63,0-31.13-25.32-56.45-56.46-56.45h-21.55c-1,8.58-3.52,16.7-7.29,24.08,.15,.29,.3,.58,.45,.87h27.81c17.34,0,31.42,13.3,32.06,30.29Z"/><path class="b" d="M212.97,265.27c-2.2-6.68-8.76-11.6-16.31-11.6h-22.42c.76,3.2,1.31,6.48,1.63,9.83h21.38c5.4,0,10.66,.62,15.73,1.77Z"/><path class="c" d="M212.97,265.27c5.52,1.25,10.8,3.12,15.76,5.57,.01-.62,.01-1.23-.01-1.85-.64-16.99-14.72-30.29-32.06-30.29h-27.81c2.33,4.72,4.15,9.74,5.39,14.98h22.42c7.56,0,14.11,4.92,16.31,11.6Z"/><path class="c" d="M253.7,270.19c0,6.16-1,12.08-2.83,17.63,3.92,4.46,7.29,9.41,10.02,14.74,3.77-7.38,6.3-15.5,7.29-24.08,.32-2.72,.5-5.48,.5-8.29,0-2.26-.12-4.48-.32-6.69-.31-3.35-.87-6.63-1.63-9.83-1.25-5.24-3.06-10.25-5.39-14.98-.14-.29-.3-.58-.45-.87-2.73-5.34-6.1-10.28-10.02-14.74-6.17-7.01-13.68-12.81-22.14-16.98-4.96-2.45-10.24-4.32-15.76-5.57-5.06-1.14-10.32-1.77-15.73-1.77h-21.38c.21,2.2,.32,4.43,.32,6.69,0,2.8-.18,5.57-.5,8.29h21.55c31.13,0,56.46,25.32,56.46,56.45Z"/><path class="b" d="M228.72,333.73c.02,.62,.02,1.24,.01,1.85,8.46,4.17,15.97,9.97,22.14,16.98,1.83-5.55,2.83-11.47,2.83-17.63,0-31.13-25.32-56.45-56.46-56.45h-21.55c-1,8.58-3.52,16.7-7.29,24.08,.15,.29,.3,.58,.45,.87h27.81c17.34,0,31.42,13.3,32.06,30.29Z"/><path class="b" d="M212.97,330.01c-2.2-6.68-8.76-11.6-16.31-11.6h-22.42c.76,3.2,1.31,6.48,1.63,9.83h21.38c5.4,0,10.66,.62,15.73,1.77Z"/><path class="c" d="M212.97,330.01c5.52,1.25,10.8,3.12,15.76,5.57,.01-.62,.01-1.23-.01-1.85-.64-16.99-14.72-30.29-32.06-30.29h-27.81c2.33,4.72,4.15,9.74,5.39,14.98h22.42c7.56,0,14.11,4.92,16.31,11.6Z"/><path class="c" d="M253.7,334.93c0,6.16-1,12.08-2.83,17.63,3.92,4.46,7.29,9.41,10.02,14.74,3.77-7.38,6.3-15.5,7.29-24.08,.32-2.72,.5-5.48,.5-8.29,0-2.26-.12-4.48-.32-6.69-.31-3.35-.87-6.63-1.63-9.83-1.25-5.24-3.06-10.25-5.39-14.98-.14-.29-.3-.58-.45-.87-2.73-5.34-6.1-10.28-10.02-14.74-6.17-7.01-13.68-12.81-22.14-16.98-4.96-2.45-10.24-4.32-15.76-5.57-5.06-1.14-10.32-1.77-15.73-1.77h-21.38c.21,2.2,.32,4.43,.32,6.69,0,2.8-.18,5.57-.5,8.29h21.55c31.13,0,56.46,25.32,56.46,56.45Z"/><path class="b" d="M228.72,398.47c.02,.62,.02,1.24,.01,1.85,8.46,4.17,15.97,9.97,22.14,16.98,1.83-5.55,2.83-11.47,2.83-17.63,0-31.13-25.32-56.45-56.46-56.45h-21.55c-1,8.58-3.52,16.7-7.29,24.08,.15,.29,.3,.58,.45,.87h27.81c17.34,0,31.42,13.3,32.06,30.29Z"/><path class="b" d="M212.97,394.75c-2.2-6.68-8.76-11.6-16.31-11.6h-22.42c.76,3.2,1.31,6.48,1.63,9.83h21.38c5.4,0,10.66,.62,15.73,1.77Z"/><path class="c" d="M253.7,399.68c0,6.16-1,12.08-2.83,17.63,3.92,4.46,7.29,9.41,10.02,14.74,3.77-7.38,6.3-15.5,7.29-24.08,.32-2.72,.5-5.48,.5-8.29,0-2.26-.12-4.48-.32-6.69-.31-3.35-.87-6.63-1.63-9.83-1.25-5.24-3.06-10.25-5.39-14.98-.14-.29-.3-.58-.45-.87-2.73-5.34-6.1-10.28-10.02-14.74-6.17-7.01-13.68-12.81-22.14-16.98-4.96-2.45-10.24-4.32-15.76-5.57-5.06-1.14-10.32-1.77-15.73-1.77h-21.38c.21,2.2,.32,4.43,.32,6.69,0,2.8-.18,5.57-.5,8.29h21.55c31.13,0,56.46,25.32,56.46,56.45Z"/><path class="c" d="M212.97,394.75c5.52,1.25,10.8,3.12,15.76,5.57,.01-.62,.01-1.23-.01-1.85-.64-16.99-14.72-30.29-32.06-30.29h-27.81c2.33,4.72,4.15,9.74,5.39,14.98h22.42c7.56,0,14.11,4.92,16.31,11.6Z"/><path class="b" d="M228.72,463.21c.02,.62,.02,1.24,.01,1.85,8.46,4.17,15.97,9.97,22.14,16.98,1.83-5.55,2.83-11.47,2.83-17.63,0-31.13-25.32-56.45-56.46-56.45h-21.55c-1,8.58-3.52,16.7-7.29,24.08,.15,.29,.3,.58,.45,.87h27.81c17.34,0,31.42,13.3,32.06,30.29Z"/><path class="b" d="M212.97,459.5c-2.2-6.68-8.76-11.6-16.31-11.6h-22.42c.76,3.2,1.31,6.48,1.63,9.83h21.38c5.4,0,10.66,.62,15.73,1.77Z"/><path class="c" d="M253.7,464.42c0,6.16-1,12.08-2.83,17.63,3.92,4.46,7.29,9.41,10.02,14.74,3.77-7.38,6.3-15.5,7.29-24.08,.32-2.72,.5-5.48,.5-8.29,0-2.26-.12-4.48-.32-6.69-.31-3.35-.87-6.63-1.63-9.83-1.25-5.24-3.06-10.25-5.39-14.98-.14-.29-.3-.58-.45-.87-2.73-5.34-6.1-10.28-10.02-14.74-6.17-7.01-13.68-12.81-22.14-16.98-4.96-2.45-10.24-4.32-15.76-5.57-5.06-1.14-10.32-1.77-15.73-1.77h-21.38c.21,2.2,.32,4.43,.32,6.69,0,2.8-.18,5.57-.5,8.29h21.55c31.13,0,56.46,25.32,56.46,56.45Z"/><path class="c" d="M212.97,459.5c5.52,1.25,10.8,3.12,15.76,5.57,.01-.62,.01-1.23-.01-1.85-.64-16.99-14.72-30.29-32.06-30.29h-27.81c2.33,4.72,4.15,9.74,5.39,14.98h22.42c7.56,0,14.11,4.92,16.31,11.6Z"/><path class="b" d="M228.72,527.95c.02,.62,.02,1.24,.01,1.85,8.46,4.17,15.97,9.97,22.14,16.98,1.83-5.55,2.83-11.47,2.83-17.63,0-31.13-25.32-56.45-56.46-56.45h-21.55c-1,8.58-3.52,16.7-7.29,24.08,.15,.29,.3,.58,.45,.87h27.81c17.34,0,31.42,13.3,32.06,30.29Z"/><path class="b" d="M212.97,524.24c-2.2-6.68-8.76-11.6-16.31-11.6h-22.42c.76,3.2,1.31,6.48,1.63,9.83h21.38c5.4,0,10.66,.62,15.73,1.77Z"/><path class="c" d="M253.7,529.16c0,6.16-1,12.08-2.83,17.63,3.92,4.46,7.29,9.41,10.02,14.74,3.77-7.38,6.3-15.5,7.29-24.08,.32-2.72,.5-5.48,.5-8.29,0-2.26-.12-4.48-.32-6.69-.31-3.35-.87-6.63-1.63-9.83-1.25-5.24-3.06-10.25-5.39-14.98-.14-.29-.3-.58-.45-.87-2.73-5.34-6.1-10.28-10.02-14.74-6.17-7.01-13.68-12.81-22.14-16.98-4.96-2.45-10.24-4.32-15.76-5.57-5.06-1.14-10.32-1.77-15.73-1.77h-21.38c.21,2.2,.32,4.43,.32,6.69,0,2.8-.18,5.57-.5,8.29h21.55c31.13,0,56.46,25.32,56.46,56.45Z"/><path class="c" d="M212.97,524.24c5.52,1.25,10.8,3.12,15.76,5.57,.01-.62,.01-1.23-.01-1.85-.64-16.99-14.72-30.29-32.06-30.29h-27.81c2.33,4.72,4.15,9.74,5.39,14.98h22.42c7.56,0,14.11,4.92,16.31,11.6Z"/><path class="b" d="M253.7,593.9c0-31.13-25.32-56.45-56.46-56.45h-21.55c-1,8.58-3.52,16.7-7.29,24.08,.15,.29,.3,.58,.45,.87h27.81c17.34,0,31.42,13.3,32.06,30.29,.02,.62,.02,1.24,.01,1.85,8.46,4.17,15.97,9.97,22.14,16.98,1.83-5.55,2.83-11.47,2.83-17.63Z"/><path class="b" d="M196.66,577.38h-22.42c.76,3.2,1.31,6.48,1.63,9.83h21.38c5.4,0,10.66,.62,15.73,1.77-2.2-6.68-8.76-11.6-16.31-11.6Z"/><path class="c" d="M266.73,577.38c-1.25-5.24-3.06-10.25-5.39-14.98-.14-.29-.3-.58-.45-.87-2.73-5.34-6.1-10.28-10.02-14.74-6.17-7.01-13.68-12.81-22.14-16.98-4.96-2.45-10.24-4.32-15.76-5.57-5.06-1.14-10.32-1.77-15.73-1.77h-21.38c.21,2.2,.32,4.43,.32,6.69,0,2.8-.18,5.57-.5,8.29h21.55c31.13,0,56.46,25.32,56.46,56.45,0,6.16-1,12.08-2.83,17.63,3.92,4.46,7.29,9.41,10.02,14.74,3.77-7.38,6.3-15.5,7.29-24.08,.32-2.72,.5-5.48,.5-8.29,0-2.26-.12-4.48-.32-6.69-.31-3.35-.87-6.63-1.63-9.83Z"/><path class="c" d="M228.72,592.69c-.64-16.99-14.72-30.29-32.06-30.29h-27.81c2.33,4.72,4.15,9.74,5.39,14.98h22.42c7.56,0,14.11,4.92,16.31,11.6,5.52,1.25,10.8,3.12,15.76,5.57,.01-.62,.01-1.23-.01-1.85Z"/><path class="b" d="M197.25,602.19h-21.55c-1,8.58-3.52,16.7-7.29,24.08,.15,.29,.3,.58,.45,.87h27.81c13.74,0,25.43,8.36,30.01,20.28h25.91c-5.22-25.77-28.04-45.23-55.33-45.23Z"/><path class="b" d="M196.66,642.12h-22.42c.41,1.74,.78,3.51,1.06,5.3h33.83c-3.15-3.24-7.6-5.3-12.47-5.3Z"/><path class="c" d="M261.34,627.15c-.14-.29-.3-.58-.45-.87-2.73-5.34-6.1-10.28-10.02-14.74-6.17-7.01-13.68-12.81-22.14-16.98-4.96-2.45-10.24-4.32-15.76-5.57-5.06-1.14-10.32-1.77-15.73-1.77h-21.38c.21,2.2,.32,4.43,.32,6.69,0,2.8-.18,5.57-.5,8.29h21.55c27.29,0,50.11,19.46,55.33,45.23h15.21c-.28-1.79-.65-3.56-1.06-5.3-1.25-5.24-3.06-10.25-5.39-14.98Z"/><path class="c" d="M196.66,627.15h-27.81c2.33,4.72,4.15,9.74,5.39,14.98h22.42c4.87,0,9.33,2.06,12.47,5.3h17.54c-4.58-11.92-16.27-20.28-30.01-20.28Z"/><path class="b" d="M104.76,4.53c5.4,0,10.66,.62,15.73,1.77-.78-2.37-2.11-4.51-3.84-6.3h-33.83c.24,1.5,.42,3.01,.57,4.53h21.38Z"/><path class="b" d="M136.24,11.87c8.46,4.17,15.97,9.97,22.14,16.98,1.83-5.55,2.83-11.47,2.83-17.63,0-3.84-.39-7.59-1.12-11.22h-25.91c1.2,3.12,1.92,6.49,2.05,10.01,.02,.62,.02,1.24,.01,1.85Z"/><path class="c" d="M136.24,11.87c.01-.62,.01-1.23-.01-1.85-.13-3.53-.85-6.89-2.05-10.01h-17.54c1.73,1.79,3.06,3.93,3.84,6.3,5.52,1.25,10.8,3.12,15.76,5.57Z"/><path class="c" d="M161.21,11.22c0,6.16-1,12.08-2.83,17.63,3.92,4.46,7.29,9.41,10.02,14.74,3.77-7.38,6.3-15.5,7.29-24.08,.32-2.72,.5-5.48,.5-8.29,0-2.26-.12-4.48-.32-6.69-.14-1.53-.33-3.04-.57-4.53h-15.21c.74,3.63,1.12,7.38,1.12,11.22Z"/><path class="b" d="M136.23,74.76c.02,.62,.02,1.24,.01,1.85,8.46,4.17,15.97,9.97,22.14,16.98,1.83-5.55,2.83-11.47,2.83-17.63,0-31.13-25.32-56.45-56.45-56.45h-21.55c-1,8.58-3.52,16.7-7.29,24.08,.15,.29,.3,.58,.45,.87h27.81c17.34,0,31.42,13.3,32.06,30.29Z"/><path class="b" d="M120.48,71.04c-2.2-6.68-8.76-11.6-16.31-11.6h-22.42c.76,3.2,1.31,6.48,1.63,9.83h21.38c5.4,0,10.66,.62,15.73,1.77Z"/><path class="c" d="M161.21,75.96c0,6.16-1,12.08-2.83,17.63,3.92,4.46,7.29,9.41,10.02,14.74,3.77-7.38,6.3-15.5,7.29-24.08,.32-2.72,.5-5.48,.5-8.29,0-2.26-.12-4.48-.32-6.69-.31-3.35-.86-6.63-1.63-9.83-1.25-5.24-3.06-10.25-5.39-14.98-.14-.29-.3-.58-.45-.87-2.73-5.34-6.1-10.28-10.02-14.74-6.17-7.01-13.68-12.81-22.14-16.98-4.96-2.45-10.24-4.32-15.76-5.57-5.06-1.14-10.32-1.77-15.73-1.77h-21.38c.21,2.2,.32,4.43,.32,6.69,0,2.8-.18,5.57-.5,8.29h21.55c31.13,0,56.45,25.32,56.45,56.45Z"/><path class="c" d="M120.48,71.04c5.52,1.25,10.8,3.12,15.76,5.57,.01-.62,.01-1.23-.01-1.85-.64-16.99-14.72-30.29-32.06-30.29h-27.81c2.33,4.72,4.15,9.74,5.39,14.98h22.42c7.56,0,14.11,4.92,16.31,11.6Z"/><path class="b" d="M136.23,139.5c.02,.62,.02,1.24,.01,1.85,8.46,4.17,15.97,9.97,22.14,16.98,1.83-5.55,2.83-11.47,2.83-17.63,0-31.13-25.32-56.45-56.45-56.45h-21.55c-1,8.58-3.52,16.7-7.29,24.08,.15,.29,.3,.58,.45,.87h27.81c17.34,0,31.42,13.3,32.06,30.29Z"/><path class="b" d="M120.48,135.78c-2.2-6.68-8.76-11.6-16.31-11.6h-22.42c.76,3.2,1.31,6.48,1.63,9.83h21.38c5.4,0,10.66,.62,15.73,1.77Z"/><path class="c" d="M120.48,135.78c5.52,1.25,10.8,3.12,15.76,5.57,.01-.62,.01-1.23-.01-1.85-.64-16.99-14.72-30.29-32.06-30.29h-27.81c2.33,4.72,4.15,9.74,5.39,14.98h22.42c7.56,0,14.11,4.92,16.31,11.6Z"/><path class="c" d="M161.21,140.71c0,6.16-1,12.08-2.83,17.63,3.92,4.46,7.29,9.41,10.02,14.74,3.77-7.38,6.3-15.5,7.29-24.08,.32-2.72,.5-5.48,.5-8.29,0-2.26-.12-4.48-.32-6.69-.31-3.35-.86-6.63-1.63-9.83-1.25-5.24-3.06-10.25-5.39-14.98-.14-.29-.3-.58-.45-.87-2.73-5.34-6.1-10.28-10.02-14.74-6.17-7.01-13.68-12.81-22.14-16.98-4.96-2.45-10.24-4.32-15.76-5.57-5.06-1.14-10.32-1.77-15.73-1.77h-21.38c.21,2.2,.32,4.43,.32,6.69,0,2.8-.18,5.57-.5,8.29h21.55c31.13,0,56.45,25.32,56.45,56.45Z"/><path class="b" d="M136.23,204.24c.02,.62,.02,1.24,.01,1.85,8.46,4.17,15.97,9.97,22.14,16.98,1.83-5.55,2.83-11.47,2.83-17.63,0-31.13-25.32-56.45-56.45-56.45h-21.55c-1,8.58-3.52,16.7-7.29,24.08,.15,.29,.3,.58,.45,.87h27.81c17.34,0,31.42,13.3,32.06,30.29Z"/><path class="b" d="M120.48,200.53c-2.2-6.68-8.76-11.6-16.31-11.6h-22.42c.76,3.2,1.31,6.48,1.63,9.83h21.38c5.4,0,10.66,.62,15.73,1.77Z"/><path class="c" d="M161.21,205.45c0,6.16-1,12.08-2.83,17.63,3.92,4.46,7.29,9.41,10.02,14.74,3.77-7.38,6.3-15.5,7.29-24.08,.32-2.72,.5-5.48,.5-8.29,0-2.26-.12-4.48-.32-6.69-.31-3.35-.86-6.63-1.63-9.83-1.25-5.24-3.06-10.25-5.39-14.98-.14-.29-.3-.58-.45-.87-2.73-5.34-6.1-10.28-10.02-14.74-6.17-7.01-13.68-12.81-22.14-16.98-4.96-2.45-10.24-4.32-15.76-5.57-5.06-1.14-10.32-1.77-15.73-1.77h-21.38c.21,2.2,.32,4.43,.32,6.69,0,2.8-.18,5.57-.5,8.29h21.55c31.13,0,56.45,25.32,56.45,56.45Z"/><path class="c" d="M120.48,200.53c5.52,1.25,10.8,3.12,15.76,5.57,.01-.62,.01-1.23-.01-1.85-.64-16.99-14.72-30.29-32.06-30.29h-27.81c2.33,4.72,4.15,9.74,5.39,14.98h22.42c7.56,0,14.11,4.92,16.31,11.6Z"/><path class="b" d="M136.23,268.98c.02,.62,.02,1.24,.01,1.85,8.46,4.17,15.97,9.97,22.14,16.98,1.83-5.55,2.83-11.47,2.83-17.63,0-31.13-25.32-56.45-56.45-56.45h-21.55c-1,8.58-3.52,16.7-7.29,24.08,.15,.29,.3,.58,.45,.87h27.81c17.34,0,31.42,13.3,32.06,30.29Z"/><path class="b" d="M120.48,265.27c-2.2-6.68-8.76-11.6-16.31-11.6h-22.42c.76,3.2,1.31,6.48,1.63,9.83h21.38c5.4,0,10.66,.62,15.73,1.77Z"/><path class="c" d="M161.21,270.19c0,6.16-1,12.08-2.83,17.63,3.92,4.46,7.29,9.41,10.02,14.74,3.77-7.38,6.3-15.5,7.29-24.08,.32-2.72,.5-5.48,.5-8.29,0-2.26-.12-4.48-.32-6.69-.31-3.35-.86-6.63-1.63-9.83-1.25-5.24-3.06-10.25-5.39-14.98-.14-.29-.3-.58-.45-.87-2.73-5.34-6.1-10.28-10.02-14.74-6.17-7.01-13.68-12.81-22.14-16.98-4.96-2.45-10.24-4.32-15.76-5.57-5.06-1.14-10.32-1.77-15.73-1.77h-21.38c.21,2.2,.32,4.43,.32,6.69,0,2.8-.18,5.57-.5,8.29h21.55c31.13,0,56.45,25.32,56.45,56.45Z"/><path class="c" d="M120.48,265.27c5.52,1.25,10.8,3.12,15.76,5.57,.01-.62,.01-1.23-.01-1.85-.64-16.99-14.72-30.29-32.06-30.29h-27.81c2.33,4.72,4.15,9.74,5.39,14.98h22.42c7.56,0,14.11,4.92,16.31,11.6Z"/><path class="b" d="M136.23,333.73c.02,.62,.02,1.24,.01,1.85,8.46,4.17,15.97,9.97,22.14,16.98,1.83-5.55,2.83-11.47,2.83-17.63,0-31.13-25.32-56.45-56.45-56.45h-21.55c-1,8.58-3.52,16.7-7.29,24.08,.15,.29,.3,.58,.45,.87h27.81c17.34,0,31.42,13.3,32.06,30.29Z"/><path class="b" d="M120.48,330.01c-2.2-6.68-8.76-11.6-16.31-11.6h-22.42c.76,3.2,1.31,6.48,1.63,9.83h21.38c5.4,0,10.66,.62,15.73,1.77Z"/><path class="c" d="M161.21,334.93c0,6.16-1,12.08-2.83,17.63,3.92,4.46,7.29,9.41,10.02,14.74,3.77-7.38,6.3-15.5,7.29-24.08,.32-2.72,.5-5.48,.5-8.29,0-2.26-.12-4.48-.32-6.69-.31-3.35-.86-6.63-1.63-9.83-1.25-5.24-3.06-10.25-5.39-14.98-.14-.29-.3-.58-.45-.87-2.73-5.34-6.1-10.28-10.02-14.74-6.17-7.01-13.68-12.81-22.14-16.98-4.96-2.45-10.24-4.32-15.76-5.57-5.06-1.14-10.32-1.77-15.73-1.77h-21.38c.21,2.2,.32,4.43,.32,6.69,0,2.8-.18,5.57-.5,8.29h21.55c31.13,0,56.45,25.32,56.45,56.45Z"/><path class="c" d="M120.48,330.01c5.52,1.25,10.8,3.12,15.76,5.57,.01-.62,.01-1.23-.01-1.85-.64-16.99-14.72-30.29-32.06-30.29h-27.81c2.33,4.72,4.15,9.74,5.39,14.98h22.42c7.56,0,14.11,4.92,16.31,11.6Z"/><path class="b" d="M136.23,398.47c.02,.62,.02,1.24,.01,1.85,8.46,4.17,15.97,9.97,22.14,16.98,1.83-5.55,2.83-11.47,2.83-17.63,0-31.13-25.32-56.45-56.45-56.45h-21.55c-1,8.58-3.52,16.7-7.29,24.08,.15,.29,.3,.58,.45,.87h27.81c17.34,0,31.42,13.3,32.06,30.29Z"/><path class="b" d="M120.48,394.75c-2.2-6.68-8.76-11.6-16.31-11.6h-22.42c.76,3.2,1.31,6.48,1.63,9.83h21.38c5.4,0,10.66,.62,15.73,1.77Z"/><path class="c" d="M120.48,394.75c5.52,1.25,10.8,3.12,15.76,5.57,.01-.62,.01-1.23-.01-1.85-.64-16.99-14.72-30.29-32.06-30.29h-27.81c2.33,4.72,4.15,9.74,5.39,14.98h22.42c7.56,0,14.11,4.92,16.31,11.6Z"/><path class="c" d="M161.21,399.68c0,6.16-1,12.08-2.83,17.63,3.92,4.46,7.29,9.41,10.02,14.74,3.77-7.38,6.3-15.5,7.29-24.08,.32-2.72,.5-5.48,.5-8.29,0-2.26-.12-4.48-.32-6.69-.31-3.35-.86-6.63-1.63-9.83-1.25-5.24-3.06-10.25-5.39-14.98-.14-.29-.3-.58-.45-.87-2.73-5.34-6.1-10.28-10.02-14.74-6.17-7.01-13.68-12.81-22.14-16.98-4.96-2.45-10.24-4.32-15.76-5.57-5.06-1.14-10.32-1.77-15.73-1.77h-21.38c.21,2.2,.32,4.43,.32,6.69,0,2.8-.18,5.57-.5,8.29h21.55c31.13,0,56.45,25.32,56.45,56.45Z"/><path class="b" d="M136.23,463.21c.02,.62,.02,1.24,.01,1.85,8.46,4.17,15.97,9.97,22.14,16.98,1.83-5.55,2.83-11.47,2.83-17.63,0-31.13-25.32-56.45-56.45-56.45h-21.55c-1,8.58-3.52,16.7-7.29,24.08,.15,.29,.3,.58,.45,.87h27.81c17.34,0,31.42,13.3,32.06,30.29Z"/><path class="b" d="M120.48,459.5c-2.2-6.68-8.76-11.6-16.31-11.6h-22.42c.76,3.2,1.31,6.48,1.63,9.83h21.38c5.4,0,10.66,.62,15.73,1.77Z"/><path class="c" d="M120.48,459.5c5.52,1.25,10.8,3.12,15.76,5.57,.01-.62,.01-1.23-.01-1.85-.64-16.99-14.72-30.29-32.06-30.29h-27.81c2.33,4.72,4.15,9.74,5.39,14.98h22.42c7.56,0,14.11,4.92,16.31,11.6Z"/><path class="c" d="M161.21,464.42c0,6.16-1,12.08-2.83,17.63,3.92,4.46,7.29,9.41,10.02,14.74,3.77-7.38,6.3-15.5,7.29-24.08,.32-2.72,.5-5.48,.5-8.29,0-2.26-.12-4.48-.32-6.69-.31-3.35-.86-6.63-1.63-9.83-1.25-5.24-3.06-10.25-5.39-14.98-.14-.29-.3-.58-.45-.87-2.73-5.34-6.1-10.28-10.02-14.74-6.17-7.01-13.68-12.81-22.14-16.98-4.96-2.45-10.24-4.32-15.76-5.57-5.06-1.14-10.32-1.77-15.73-1.77h-21.38c.21,2.2,.32,4.43,.32,6.69,0,2.8-.18,5.57-.5,8.29h21.55c31.13,0,56.45,25.32,56.45,56.45Z"/><path class="b" d="M136.23,527.95c.02,.62,.02,1.24,.01,1.85,8.46,4.17,15.97,9.97,22.14,16.98,1.83-5.55,2.83-11.47,2.83-17.63,0-31.13-25.32-56.45-56.45-56.45h-21.55c-1,8.58-3.52,16.7-7.29,24.08,.15,.29,.3,.58,.45,.87h27.81c17.34,0,31.42,13.3,32.06,30.29Z"/><path class="b" d="M120.48,524.24c-2.2-6.68-8.76-11.6-16.31-11.6h-22.42c.76,3.2,1.31,6.48,1.63,9.83h21.38c5.4,0,10.66,.62,15.73,1.77Z"/><path class="c" d="M120.48,524.24c5.52,1.25,10.8,3.12,15.76,5.57,.01-.62,.01-1.23-.01-1.85-.64-16.99-14.72-30.29-32.06-30.29h-27.81c2.33,4.72,4.15,9.74,5.39,14.98h22.42c7.56,0,14.11,4.92,16.31,11.6Z"/><path class="c" d="M161.21,529.16c0,6.16-1,12.08-2.83,17.63,3.92,4.46,7.29,9.41,10.02,14.74,3.77-7.38,6.3-15.5,7.29-24.08,.32-2.72,.5-5.48,.5-8.29,0-2.26-.12-4.48-.32-6.69-.31-3.35-.86-6.63-1.63-9.83-1.25-5.24-3.06-10.25-5.39-14.98-.14-.29-.3-.58-.45-.87-2.73-5.34-6.1-10.28-10.02-14.74-6.17-7.01-13.68-12.81-22.14-16.98-4.96-2.45-10.24-4.32-15.76-5.57-5.06-1.14-10.32-1.77-15.73-1.77h-21.38c.21,2.2,.32,4.43,.32,6.69,0,2.8-.18,5.57-.5,8.29h21.55c31.13,0,56.45,25.32,56.45,56.45Z"/><path class="b" d="M136.23,592.69c.02,.62,.02,1.24,.01,1.85,8.46,4.17,15.97,9.97,22.14,16.98,1.83-5.55,2.83-11.47,2.83-17.63,0-31.13-25.32-56.45-56.45-56.45h-21.55c-1,8.58-3.52,16.7-7.29,24.08,.15,.29,.3,.58,.45,.87h27.81c17.34,0,31.42,13.3,32.06,30.29Z"/><path class="b" d="M120.48,588.98c-2.2-6.68-8.76-11.6-16.31-11.6h-22.42c.76,3.2,1.31,6.48,1.63,9.83h21.38c5.4,0,10.66,.62,15.73,1.77Z"/><path class="c" d="M161.21,593.9c0,6.16-1,12.08-2.83,17.63,3.92,4.46,7.29,9.41,10.02,14.74,3.77-7.38,6.3-15.5,7.29-24.08,.32-2.72,.5-5.48,.5-8.29,0-2.26-.12-4.48-.32-6.69-.31-3.35-.86-6.63-1.63-9.83-1.25-5.24-3.06-10.25-5.39-14.98-.14-.29-.3-.58-.45-.87-2.73-5.34-6.1-10.28-10.02-14.74-6.17-7.01-13.68-12.81-22.14-16.98-4.96-2.45-10.24-4.32-15.76-5.57-5.06-1.14-10.32-1.77-15.73-1.77h-21.38c.21,2.2,.32,4.43,.32,6.69,0,2.8-.18,5.57-.5,8.29h21.55c31.13,0,56.45,25.32,56.45,56.45Z"/><path class="c" d="M120.48,588.98c5.52,1.25,10.8,3.12,15.76,5.57,.01-.62,.01-1.23-.01-1.85-.64-16.99-14.72-30.29-32.06-30.29h-27.81c2.33,4.72,4.15,9.74,5.39,14.98h22.42c7.56,0,14.11,4.92,16.31,11.6Z"/><path class="b" d="M104.76,602.19h-21.55c-1,8.58-3.52,16.7-7.29,24.08,.15,.29,.3,.58,.45,.87h27.81c13.74,0,25.43,8.36,30.01,20.28h25.91c-5.22-25.77-28.04-45.23-55.33-45.23Z"/><path class="b" d="M104.17,642.12h-22.42c.42,1.74,.78,3.51,1.06,5.3h33.83c-3.15-3.24-7.6-5.3-12.47-5.3Z"/><path class="c" d="M168.85,627.15c-.14-.29-.3-.58-.45-.87-2.73-5.34-6.1-10.28-10.02-14.74-6.17-7.01-13.68-12.81-22.14-16.98-4.96-2.45-10.24-4.32-15.76-5.57-5.06-1.14-10.32-1.77-15.73-1.77h-21.38c.21,2.2,.32,4.43,.32,6.69,0,2.8-.18,5.57-.5,8.29h21.55c27.29,0,50.11,19.46,55.33,45.23h15.21c-.28-1.79-.65-3.56-1.06-5.3-1.25-5.24-3.06-10.25-5.39-14.98Z"/><path class="c" d="M104.17,627.15h-27.81c2.33,4.72,4.15,9.74,5.39,14.98h22.42c4.87,0,9.33,2.06,12.47,5.3h17.54c-4.58-11.92-16.27-20.28-30.01-20.28Z"/><path class="b" d="M28,6.3c-.78-2.37-2.11-4.51-3.84-6.3H0V4.53H12.27c5.4,0,10.66,.62,15.73,1.77Z"/><path class="b" d="M43.76,11.87c8.46,4.17,15.97,9.97,22.14,16.98,1.83-5.55,2.83-11.47,2.83-17.63,0-3.84-.39-7.59-1.12-11.22h-25.91c1.2,3.12,1.92,6.49,2.05,10.01,.02,.62,.02,1.24,.01,1.85Z"/><path class="c" d="M43.76,11.87c.01-.62,.01-1.23-.01-1.85-.13-3.53-.85-6.89-2.05-10.01H24.15c1.73,1.79,3.06,3.93,3.84,6.3,5.52,1.25,10.8,3.12,15.76,5.57Z"/><path class="c" d="M68.73,11.22c0,6.16-1,12.08-2.83,17.63,3.92,4.46,7.29,9.41,10.02,14.74,3.77-7.38,6.3-15.5,7.29-24.08,.32-2.72,.5-5.48,.5-8.29,0-2.26-.12-4.48-.32-6.69-.14-1.53-.33-3.04-.57-4.53h-15.21c.73,3.63,1.12,7.38,1.12,11.22Z"/><path class="b" d="M43.74,74.76c.02,.62,.02,1.24,.01,1.85,8.46,4.17,15.97,9.97,22.14,16.98,1.83-5.55,2.83-11.47,2.83-17.63,0-31.13-25.32-56.45-56.46-56.45H0v24.96H11.68c17.34,0,31.42,13.3,32.06,30.29Z"/><path class="b" d="M28,71.04c-2.2-6.68-8.76-11.6-16.31-11.6H0v9.83H12.27c5.4,0,10.66,.62,15.73,1.77Z"/><path class="c" d="M68.73,75.96c0,6.16-1,12.08-2.83,17.63,3.92,4.46,7.29,9.41,10.02,14.74,3.77-7.38,6.3-15.5,7.29-24.08,.32-2.72,.5-5.48,.5-8.29,0-2.26-.12-4.48-.32-6.69-.31-3.35-.87-6.63-1.63-9.83-1.25-5.24-3.06-10.25-5.39-14.98-.14-.29-.3-.58-.45-.87-2.72-5.34-6.1-10.28-10.02-14.74-6.17-7.01-13.68-12.81-22.14-16.98-4.96-2.45-10.24-4.32-15.76-5.57-5.06-1.14-10.32-1.77-15.73-1.77H0v14.98H12.27c31.13,0,56.46,25.32,56.46,56.45Z"/><path class="c" d="M28,71.04c5.52,1.25,10.8,3.12,15.76,5.57,.01-.62,.01-1.23-.01-1.85-.64-16.99-14.72-30.29-32.06-30.29H0v14.98H11.68c7.56,0,14.11,4.92,16.31,11.6Z"/><path class="b" d="M43.74,139.5c.02,.62,.02,1.24,.01,1.85,8.46,4.17,15.97,9.97,22.14,16.98,1.83-5.55,2.83-11.47,2.83-17.63,0-31.13-25.32-56.45-56.46-56.45H0v24.96H11.68c17.34,0,31.42,13.3,32.06,30.29Z"/><path class="b" d="M28,135.78c-2.2-6.68-8.76-11.6-16.31-11.6H0v9.83H12.27c5.4,0,10.66,.62,15.73,1.77Z"/><path class="c" d="M28,135.78c5.52,1.25,10.8,3.12,15.76,5.57,.01-.62,.01-1.23-.01-1.85-.64-16.99-14.72-30.29-32.06-30.29H0v14.98H11.68c7.56,0,14.11,4.92,16.31,11.6Z"/><path class="c" d="M68.73,140.71c0,6.16-1,12.08-2.83,17.63,3.92,4.46,7.29,9.41,10.02,14.74,3.77-7.38,6.3-15.5,7.29-24.08,.32-2.72,.5-5.48,.5-8.29,0-2.26-.12-4.48-.32-6.69-.31-3.35-.87-6.63-1.63-9.83-1.25-5.24-3.06-10.25-5.39-14.98-.14-.29-.3-.58-.45-.87-2.72-5.34-6.1-10.28-10.02-14.74-6.17-7.01-13.68-12.81-22.14-16.98-4.96-2.45-10.24-4.32-15.76-5.57-5.06-1.14-10.32-1.77-15.73-1.77H0v14.98H12.27c31.13,0,56.46,25.32,56.46,56.45Z"/><path class="b" d="M43.74,204.24c.02,.62,.02,1.24,.01,1.85,8.46,4.17,15.97,9.97,22.14,16.98,1.83-5.55,2.83-11.47,2.83-17.63,0-31.13-25.32-56.45-56.46-56.45H0v24.96H11.68c17.34,0,31.42,13.3,32.06,30.29Z"/><path class="b" d="M28,200.53c-2.2-6.68-8.76-11.6-16.31-11.6H0v9.83H12.27c5.4,0,10.66,.62,15.73,1.77Z"/><path class="c" d="M68.73,205.45c0,6.16-1,12.08-2.83,17.63,3.92,4.46,7.29,9.41,10.02,14.74,3.77-7.38,6.3-15.5,7.29-24.08,.32-2.72,.5-5.48,.5-8.29,0-2.26-.12-4.48-.32-6.69-.31-3.35-.87-6.63-1.63-9.83-1.25-5.24-3.06-10.25-5.39-14.98-.14-.29-.3-.58-.45-.87-2.72-5.34-6.1-10.28-10.02-14.74-6.17-7.01-13.68-12.81-22.14-16.98-4.96-2.45-10.24-4.32-15.76-5.57-5.06-1.14-10.32-1.77-15.73-1.77H0v14.98H12.27c31.13,0,56.46,25.32,56.46,56.45Z"/><path class="c" d="M28,200.53c5.52,1.25,10.8,3.12,15.76,5.57,.01-.62,.01-1.23-.01-1.85-.64-16.99-14.72-30.29-32.06-30.29H0v14.98H11.68c7.56,0,14.11,4.92,16.31,11.6Z"/><path class="b" d="M43.74,268.98c.02,.62,.02,1.24,.01,1.85,8.46,4.17,15.97,9.97,22.14,16.98,1.83-5.55,2.83-11.47,2.83-17.63,0-31.13-25.32-56.45-56.46-56.45H0v24.96H11.68c17.34,0,31.42,13.3,32.06,30.29Z"/><path class="b" d="M28,265.27c-2.2-6.68-8.76-11.6-16.31-11.6H0v9.83H12.27c5.4,0,10.66,.62,15.73,1.77Z"/><path class="c" d="M68.73,270.19c0,6.16-1,12.08-2.83,17.63,3.92,4.46,7.29,9.41,10.02,14.74,3.77-7.38,6.3-15.5,7.29-24.08,.32-2.72,.5-5.48,.5-8.29,0-2.26-.12-4.48-.32-6.69-.31-3.35-.87-6.63-1.63-9.83-1.25-5.24-3.06-10.25-5.39-14.98-.14-.29-.3-.58-.45-.87-2.72-5.34-6.1-10.28-10.02-14.74-6.17-7.01-13.68-12.81-22.14-16.98-4.96-2.45-10.24-4.32-15.76-5.57-5.06-1.14-10.32-1.77-15.73-1.77H0v14.98H12.27c31.13,0,56.46,25.32,56.46,56.45Z"/><path class="c" d="M28,265.27c5.52,1.25,10.8,3.12,15.76,5.57,.01-.62,.01-1.23-.01-1.85-.64-16.99-14.72-30.29-32.06-30.29H0v14.98H11.68c7.56,0,14.11,4.92,16.31,11.6Z"/><path class="b" d="M43.74,333.73c.02,.62,.02,1.24,.01,1.85,8.46,4.17,15.97,9.97,22.14,16.98,1.83-5.55,2.83-11.47,2.83-17.63,0-31.13-25.32-56.45-56.46-56.45H0v24.96H11.68c17.34,0,31.42,13.3,32.06,30.29Z"/><path class="b" d="M28,330.01c-2.2-6.68-8.76-11.6-16.31-11.6H0v9.83H12.27c5.4,0,10.66,.62,15.73,1.77Z"/><path class="c" d="M68.73,334.93c0,6.16-1,12.08-2.83,17.63,3.92,4.46,7.29,9.41,10.02,14.74,3.77-7.38,6.3-15.5,7.29-24.08,.32-2.72,.5-5.48,.5-8.29,0-2.26-.12-4.48-.32-6.69-.31-3.35-.87-6.63-1.63-9.83-1.25-5.24-3.06-10.25-5.39-14.98-.14-.29-.3-.58-.45-.87-2.72-5.34-6.1-10.28-10.02-14.74-6.17-7.01-13.68-12.81-22.14-16.98-4.96-2.45-10.24-4.32-15.76-5.57-5.06-1.14-10.32-1.77-15.73-1.77H0v14.98H12.27c31.13,0,56.46,25.32,56.46,56.45Z"/><path class="c" d="M28,330.01c5.52,1.25,10.8,3.12,15.76,5.57,.01-.62,.01-1.23-.01-1.85-.64-16.99-14.72-30.29-32.06-30.29H0v14.98H11.68c7.56,0,14.11,4.92,16.31,11.6Z"/><path class="b" d="M43.74,398.47c.02,.62,.02,1.24,.01,1.85,8.46,4.17,15.97,9.97,22.14,16.98,1.83-5.55,2.83-11.47,2.83-17.63,0-31.13-25.32-56.45-56.46-56.45H0v24.96H11.68c17.34,0,31.42,13.3,32.06,30.29Z"/><path class="b" d="M28,394.75c-2.2-6.68-8.76-11.6-16.31-11.6H0v9.83H12.27c5.4,0,10.66,.62,15.73,1.77Z"/><path class="c" d="M68.73,399.68c0,6.16-1,12.08-2.83,17.63,3.92,4.46,7.29,9.41,10.02,14.74,3.77-7.38,6.3-15.5,7.29-24.08,.32-2.72,.5-5.48,.5-8.29,0-2.26-.12-4.48-.32-6.69-.31-3.35-.87-6.63-1.63-9.83-1.25-5.24-3.06-10.25-5.39-14.98-.14-.29-.3-.58-.45-.87-2.72-5.34-6.1-10.28-10.02-14.74-6.17-7.01-13.68-12.81-22.14-16.98-4.96-2.45-10.24-4.32-15.76-5.57-5.06-1.14-10.32-1.77-15.73-1.77H0v14.98H12.27c31.13,0,56.46,25.32,56.46,56.45Z"/><path class="c" d="M28,394.75c5.52,1.25,10.8,3.12,15.76,5.57,.01-.62,.01-1.23-.01-1.85-.64-16.99-14.72-30.29-32.06-30.29H0v14.98H11.68c7.56,0,14.11,4.92,16.31,11.6Z"/><path class="b" d="M43.74,463.21c.02,.62,.02,1.24,.01,1.85,8.46,4.17,15.97,9.97,22.14,16.98,1.83-5.55,2.83-11.47,2.83-17.63,0-31.13-25.32-56.45-56.46-56.45H0v24.96H11.68c17.34,0,31.42,13.3,32.06,30.29Z"/><path class="b" d="M28,459.5c-2.2-6.68-8.76-11.6-16.31-11.6H0v9.83H12.27c5.4,0,10.66,.62,15.73,1.77Z"/><path class="c" d="M68.73,464.42c0,6.16-1,12.08-2.83,17.63,3.92,4.46,7.29,9.41,10.02,14.74,3.77-7.38,6.3-15.5,7.29-24.08,.32-2.72,.5-5.48,.5-8.29,0-2.26-.12-4.48-.32-6.69-.31-3.35-.87-6.63-1.63-9.83-1.25-5.24-3.06-10.25-5.39-14.98-.14-.29-.3-.58-.45-.87-2.72-5.34-6.1-10.28-10.02-14.74-6.17-7.01-13.68-12.81-22.14-16.98-4.96-2.45-10.24-4.32-15.76-5.57-5.06-1.14-10.32-1.77-15.73-1.77H0v14.98H12.27c31.13,0,56.46,25.32,56.46,56.45Z"/><path class="c" d="M28,459.5c5.52,1.25,10.8,3.12,15.76,5.57,.01-.62,.01-1.23-.01-1.85-.64-16.99-14.72-30.29-32.06-30.29H0v14.98H11.68c7.56,0,14.11,4.92,16.31,11.6Z"/><path class="b" d="M43.74,527.95c.02,.62,.02,1.24,.01,1.85,8.46,4.17,15.97,9.97,22.14,16.98,1.83-5.55,2.83-11.47,2.83-17.63,0-31.13-25.32-56.45-56.46-56.45H0v24.96H11.68c17.34,0,31.42,13.3,32.06,30.29Z"/><path class="b" d="M28,524.24c-2.2-6.68-8.76-11.6-16.31-11.6H0v9.83H12.27c5.4,0,10.66,.62,15.73,1.77Z"/><path class="c" d="M68.73,529.16c0,6.16-1,12.08-2.83,17.63,3.92,4.46,7.29,9.41,10.02,14.74,3.77-7.38,6.3-15.5,7.29-24.08,.32-2.72,.5-5.48,.5-8.29,0-2.26-.12-4.48-.32-6.69-.31-3.35-.87-6.63-1.63-9.83-1.25-5.24-3.06-10.25-5.39-14.98-.14-.29-.3-.58-.45-.87-2.72-5.34-6.1-10.28-10.02-14.74-6.17-7.01-13.68-12.81-22.14-16.98-4.96-2.45-10.24-4.32-15.76-5.57-5.06-1.14-10.32-1.77-15.73-1.77H0v14.98H12.27c31.13,0,56.46,25.32,56.46,56.45Z"/><path class="c" d="M28,524.24c5.52,1.25,10.8,3.12,15.76,5.57,.01-.62,.01-1.23-.01-1.85-.64-16.99-14.72-30.29-32.06-30.29H0v14.98H11.68c7.56,0,14.11,4.92,16.31,11.6Z"/><path class="b" d="M43.74,592.69c.02,.62,.02,1.24,.01,1.85,8.46,4.17,15.97,9.97,22.14,16.98,1.83-5.55,2.83-11.47,2.83-17.63,0-31.13-25.32-56.45-56.46-56.45H0v24.96H11.68c17.34,0,31.42,13.3,32.06,30.29Z"/><path class="b" d="M28,588.98c-2.2-6.68-8.76-11.6-16.31-11.6H0v9.83H12.27c5.4,0,10.66,.62,15.73,1.77Z"/><path class="c" d="M28,588.98c5.52,1.25,10.8,3.12,15.76,5.57,.01-.62,.01-1.23-.01-1.85-.64-16.99-14.72-30.29-32.06-30.29H0v14.98H11.68c7.56,0,14.11,4.92,16.31,11.6Z"/><path class="c" d="M68.73,593.9c0,6.16-1,12.08-2.83,17.63,3.92,4.46,7.29,9.41,10.02,14.74,3.77-7.38,6.3-15.5,7.29-24.08,.32-2.72,.5-5.48,.5-8.29,0-2.26-.12-4.48-.32-6.69-.31-3.35-.87-6.63-1.63-9.83-1.25-5.24-3.06-10.25-5.39-14.98-.14-.29-.3-.58-.45-.87-2.72-5.34-6.1-10.28-10.02-14.74-6.17-7.01-13.68-12.81-22.14-16.98-4.96-2.45-10.24-4.32-15.76-5.57-5.06-1.14-10.32-1.77-15.73-1.77H0v14.98H12.27c31.13,0,56.46,25.32,56.46,56.45Z"/><path class="b" d="M41.69,647.42h25.91c-5.22-25.77-28.04-45.23-55.33-45.23H0v24.96H11.68c13.74,0,25.43,8.36,30.01,20.28Z"/><path class="b" d="M24.15,647.42c-3.15-3.24-7.6-5.3-12.47-5.3H0v5.3H24.15Z"/><path class="c" d="M67.6,647.42h15.21c-.28-1.79-.65-3.56-1.06-5.3-1.25-5.24-3.06-10.25-5.39-14.98-.14-.29-.3-.58-.45-.87-2.72-5.34-6.1-10.28-10.02-14.74-6.17-7.01-13.68-12.81-22.14-16.98-4.96-2.45-10.24-4.32-15.76-5.57-5.06-1.14-10.32-1.77-15.73-1.77H0v14.98H12.27c27.29,0,50.11,19.46,55.33,45.23Z"/><path class="c" d="M24.15,647.42h17.54c-4.58-11.92-16.27-20.28-30.01-20.28H0v14.98H11.68c4.87,0,9.33,2.06,12.47,5.3Z"/></svg>